<svg width="400" height="400" viewBox="0 0 400 400" fill="none" xmlns="http://www.w3.org/2000/svg">
<g clip-path="url(#clip0_7:156)">
<path d="M204.853 0.871977L191.838 4.6117L31.4865 50.6859L18.4712 54.4257C12.1537 56.2493 6.74344 60.7907 3.42735 67.0534C0.111253 73.3161 -0.839864 80.7888 0.782663 87.8319L57.2199 331.678C58.8566 338.717 62.9324 344.746 68.5532 348.44C74.1739 352.135 80.8805 353.195 87.2017 351.387L87.2353 351.378L273.55 297.843L273.583 297.834C279.901 296.01 285.311 291.469 288.627 285.206C291.943 278.943 292.894 271.47 291.272 264.427L234.835 20.5809C233.198 13.5419 229.122 7.51365 223.501 3.81878C217.881 0.123919 211.174 -0.935852 204.853 0.871977Z" fill="#F2F2F2"/>
<path d="M206.623 8.51727L191.207 12.9467L35.6561 57.6416L20.2407 62.071C15.7418 63.3697 11.889 66.6037 9.52754 71.0635C7.16606 75.5233 6.48874 80.8448 7.64418 85.8603L64.0814 329.707C65.2469 334.719 68.1494 339.012 72.1521 341.643C76.1548 344.275 80.9307 345.029 85.4321 343.742L85.4658 343.732L271.78 290.198L271.814 290.188C276.313 288.889 280.165 285.655 282.527 281.196C284.888 276.736 285.566 271.414 284.41 266.399L227.973 22.5525C226.807 17.5399 223.905 13.2471 219.902 10.6159C215.9 7.98465 211.124 7.22994 206.623 8.51727Z" fill="white"/>
<path d="M194.982 87.4812L100.73 114.563C99.6777 114.865 98.5603 114.69 97.624 114.074C96.6876 113.459 96.0091 112.454 95.7377 111.281C95.4662 110.108 95.624 108.863 96.1764 107.82C96.7288 106.776 97.6306 106.02 98.6833 105.718L192.935 78.6361C193.988 78.3349 195.104 78.5114 196.04 79.1271C196.975 79.7427 197.653 80.7469 197.924 81.9192C198.196 83.0914 198.038 84.3358 197.487 85.3787C196.935 86.4216 196.034 87.1779 194.982 87.4812Z" fill="#F2F2F2"/>
<path d="M214.81 97.7027L104.185 129.489C103.132 129.791 102.015 129.616 101.079 129C100.142 128.385 99.4637 127.38 99.1922 126.207C98.9207 125.034 99.0786 123.789 99.631 122.746C100.183 121.702 101.085 120.946 102.138 120.644L212.763 88.8576C213.815 88.5551 214.933 88.731 215.869 89.3465C216.806 89.962 217.484 90.9667 217.756 92.1396C218.027 93.3126 217.869 94.5576 217.317 95.6009C216.764 96.6442 215.863 97.4002 214.81 97.7027Z" fill="#F2F2F2"/>
<path d="M210.464 154.372L116.212 181.454C115.691 181.604 115.148 181.638 114.615 181.554C114.082 181.47 113.569 181.27 113.106 180.965C112.642 180.66 112.237 180.257 111.913 179.777C111.589 179.298 111.354 178.753 111.219 178.172C111.085 177.591 111.054 176.986 111.13 176.393C111.205 175.799 111.384 175.227 111.658 174.711C111.932 174.194 112.294 173.742 112.724 173.382C113.154 173.021 113.644 172.759 114.165 172.609L208.417 145.527C208.938 145.377 209.481 145.343 210.014 145.427C210.547 145.511 211.06 145.711 211.523 146.016C211.987 146.321 212.392 146.724 212.716 147.203C213.039 147.683 213.275 148.228 213.41 148.809C213.544 149.39 213.574 149.994 213.499 150.588C213.424 151.182 213.244 151.754 212.971 152.27C212.697 152.787 212.335 153.238 211.905 153.599C211.475 153.96 210.985 154.222 210.464 154.372Z" fill="#F2F2F2"/>
<path d="M230.292 164.594L119.667 196.38C119.145 196.53 118.603 196.564 118.07 196.48C117.537 196.396 117.024 196.196 116.56 195.891C116.097 195.586 115.691 195.183 115.368 194.704C115.044 194.224 114.808 193.679 114.674 193.098C114.539 192.517 114.509 191.913 114.584 191.319C114.66 190.725 114.839 190.153 115.113 189.637C115.386 189.12 115.748 188.669 116.178 188.308C116.609 187.947 117.098 187.685 117.619 187.535L228.244 155.749C229.297 155.446 230.414 155.622 231.351 156.238C232.287 156.853 232.966 157.858 233.237 159.031C233.509 160.204 233.351 161.449 232.798 162.492C232.246 163.535 231.344 164.291 230.292 164.594Z" fill="#F2F2F2"/>
<path d="M225.946 221.263L131.694 248.345C130.641 248.646 129.524 248.47 128.589 247.854C127.653 247.239 126.975 246.234 126.704 245.062C126.432 243.889 126.59 242.645 127.142 241.602C127.694 240.559 128.594 239.803 129.647 239.5L223.898 212.418C224.951 212.115 226.069 212.291 227.005 212.907C227.941 213.522 228.62 214.527 228.891 215.7C229.163 216.873 229.005 218.118 228.452 219.161C227.9 220.204 226.998 220.96 225.946 221.263Z" fill="#F2F2F2"/>
<path d="M245.773 231.485L135.148 263.271C134.627 263.421 134.084 263.456 133.551 263.372C133.017 263.289 132.504 263.089 132.04 262.784C131.576 262.479 131.17 262.076 130.846 261.596C130.522 261.117 130.286 260.571 130.152 259.99C130.017 259.409 129.987 258.804 130.062 258.21C130.138 257.615 130.318 257.044 130.592 256.527C130.865 256.01 131.228 255.559 131.659 255.198C132.089 254.838 132.579 254.575 133.101 254.426L243.726 222.64C244.779 222.337 245.896 222.513 246.832 223.128C247.769 223.744 248.447 224.749 248.719 225.922C248.99 227.095 248.832 228.34 248.28 229.383C247.728 230.426 246.826 231.182 245.773 231.485Z" fill="#F2F2F2"/>
<path d="M84.6402 142.331L51.2854 151.915C50.7806 152.06 50.2451 151.975 49.7963 151.68C49.3475 151.385 49.022 150.904 48.8913 150.342L41.2348 117.26C41.1052 116.698 41.1811 116.101 41.4459 115.601C41.7107 115.101 42.1427 114.738 42.6472 114.593L76.0021 105.009C76.5068 104.864 77.0423 104.949 77.4911 105.244C77.94 105.539 78.2654 106.02 78.3961 106.582L86.0527 139.664C86.1823 140.226 86.1063 140.823 85.8415 141.323C85.5767 141.823 85.1447 142.186 84.6402 142.331Z" fill="#E6E6E6"/>
<path d="M100.122 209.222L66.767 218.806C66.2622 218.95 65.7267 218.866 65.2779 218.571C64.8291 218.276 64.5036 217.794 64.3729 217.232L56.7164 184.151C56.5868 183.588 56.6628 182.992 56.9275 182.492C57.1923 181.992 57.6243 181.629 58.1288 181.483L91.4837 171.899C91.9884 171.755 92.5239 171.84 92.9727 172.135C93.4216 172.43 93.747 172.911 93.8777 173.473L101.534 206.555C101.664 207.117 101.588 207.714 101.323 208.214C101.058 208.714 100.626 209.077 100.122 209.222Z" fill="#E6E6E6"/>
<path d="M115.603 276.113L82.2486 285.697C81.7439 285.841 81.2083 285.757 80.7595 285.462C80.3107 285.167 79.9852 284.685 79.8545 284.123L72.198 251.042C72.0684 250.479 72.1443 249.883 72.4091 249.383C72.6739 248.883 73.1059 248.52 73.6104 248.374L106.965 238.79C107.47 238.646 108.006 238.731 108.454 239.026C108.903 239.321 109.229 239.802 109.359 240.364L117.016 273.446C117.145 274.008 117.07 274.605 116.805 275.105C116.54 275.605 116.108 275.967 115.603 276.113Z" fill="#E6E6E6"/>
<path d="M334.845 62.6841H142.365C135.839 62.6923 129.583 65.5845 124.968 70.7261C120.354 75.8678 117.758 82.8391 117.75 90.1105V341.935C117.758 349.206 120.354 356.177 124.968 361.319C129.583 366.461 135.839 369.353 142.365 369.361H334.845C341.371 369.353 347.627 366.461 352.242 361.319C356.857 356.177 359.452 349.206 359.46 341.935V90.1105C359.452 82.8391 356.857 75.8678 352.242 70.7261C347.627 65.5845 341.371 62.6923 334.845 62.6841Z" fill="#E6E6E6"/>
<path d="M334.845 70.5796H142.365C137.718 70.5854 133.263 72.645 129.976 76.3065C126.69 79.968 124.842 84.9324 124.837 90.1105V341.935C124.842 347.113 126.69 352.077 129.976 355.739C133.263 359.4 137.718 361.46 142.365 361.466H334.845C339.492 361.46 343.948 359.4 347.234 355.739C350.52 352.077 352.368 347.113 352.374 341.935V90.1105C352.369 84.9324 350.52 79.9681 347.234 76.3066C343.948 72.6451 339.492 70.5855 334.845 70.5796Z" fill="white"/>
<path d="M355.066 400C379.882 400 400 377.585 400 349.934C400 322.284 379.882 299.869 355.066 299.869C330.25 299.869 310.133 322.284 310.133 349.934C310.133 377.585 330.25 400 355.066 400Z" fill="#7868e6"/>
<path d="M376.556 343.404H360.927V325.99C360.927 324.258 360.31 322.597 359.211 321.372C358.111 320.147 356.621 319.459 355.066 319.459C353.512 319.459 352.021 320.147 350.922 321.372C349.823 322.597 349.205 324.258 349.205 325.99V343.404H333.576C332.022 343.404 330.531 344.092 329.432 345.317C328.333 346.541 327.715 348.202 327.715 349.934C327.715 351.666 328.333 353.327 329.432 354.552C330.531 355.777 332.022 356.465 333.576 356.465H349.205V373.879C349.205 375.611 349.823 377.272 350.922 378.496C352.021 379.721 353.512 380.409 355.066 380.409C356.621 380.409 358.111 379.721 359.211 378.496C360.31 377.272 360.927 375.611 360.927 373.879V356.465H376.556C378.111 356.465 379.601 355.777 380.701 354.552C381.8 353.327 382.417 351.666 382.417 349.934C382.417 348.202 381.8 346.541 380.701 345.317C379.601 344.092 378.111 343.404 376.556 343.404Z" fill="white"/>
<path d="M305.877 208.956H208.541C208.003 208.957 207.469 208.839 206.971 208.61C206.473 208.381 206.021 208.045 205.64 207.62C205.259 207.196 204.956 206.692 204.75 206.138C204.544 205.584 204.438 204.989 204.438 204.389C204.438 203.789 204.544 203.194 204.75 202.64C204.956 202.086 205.259 201.582 205.64 201.158C206.021 200.734 206.473 200.397 206.971 200.168C207.469 199.939 208.003 199.821 208.541 199.822H305.877C306.963 199.823 308.004 200.305 308.772 201.161C309.54 202.018 309.971 203.179 309.971 204.389C309.971 205.599 309.54 206.76 308.772 207.617C308.004 208.473 306.963 208.955 305.877 208.956Z" fill="#E6E6E6"/>
<path d="M322.785 224.371H208.541C208.003 224.371 207.469 224.254 206.971 224.025C206.473 223.795 206.021 223.459 205.64 223.035C205.259 222.611 204.956 222.107 204.75 221.553C204.544 220.998 204.438 220.404 204.438 219.804C204.438 219.203 204.544 218.609 204.75 218.055C204.956 217.5 205.259 216.996 205.64 216.572C206.021 216.148 206.473 215.812 206.971 215.583C207.469 215.353 208.003 215.236 208.541 215.236H322.785C323.872 215.236 324.915 215.718 325.684 216.574C326.452 217.431 326.884 218.592 326.884 219.804C326.884 221.015 326.452 222.177 325.684 223.033C324.915 223.89 323.872 224.371 322.785 224.371Z" fill="#E6E6E6"/>
<path d="M305.877 278.036H208.541C208.003 278.036 207.469 277.919 206.971 277.689C206.473 277.46 206.021 277.124 205.64 276.7C205.259 276.276 204.956 275.772 204.75 275.217C204.544 274.663 204.438 274.069 204.438 273.468C204.438 272.868 204.544 272.274 204.75 271.719C204.956 271.165 205.259 270.661 205.64 270.237C206.021 269.813 206.473 269.477 206.971 269.247C207.469 269.018 208.003 268.9 208.541 268.901H305.877C306.964 268.901 308.006 269.382 308.775 270.239C309.544 271.095 309.976 272.257 309.976 273.468C309.976 274.68 309.544 275.841 308.775 276.698C308.006 277.554 306.964 278.036 305.877 278.036Z" fill="#E6E6E6"/>
<path d="M322.785 293.45H208.541C208.003 293.451 207.469 293.333 206.971 293.104C206.473 292.874 206.021 292.538 205.64 292.114C205.259 291.69 204.956 291.186 204.75 290.632C204.544 290.077 204.438 289.483 204.438 288.883C204.438 288.282 204.544 287.688 204.75 287.134C204.956 286.579 205.259 286.076 205.64 285.651C206.021 285.227 206.473 284.891 206.971 284.662C207.469 284.432 208.003 284.315 208.541 284.315H322.785C323.324 284.315 323.857 284.432 324.355 284.662C324.853 284.891 325.306 285.227 325.687 285.651C326.068 286.076 326.37 286.579 326.576 287.134C326.783 287.688 326.889 288.282 326.889 288.883C326.889 289.483 326.783 290.077 326.576 290.632C326.37 291.186 326.068 291.69 325.687 292.114C325.306 292.538 324.853 292.874 324.355 293.104C323.857 293.333 323.324 293.451 322.785 293.45Z" fill="#E6E6E6"/>
<path d="M186.737 231.368H152.291C151.77 231.367 151.271 231.136 150.902 230.726C150.534 230.315 150.326 229.759 150.326 229.178V195.014C150.326 194.434 150.534 193.877 150.902 193.466C151.271 193.056 151.77 192.825 152.291 192.824H186.737C187.259 192.825 187.758 193.056 188.127 193.466C188.495 193.877 188.702 194.434 188.703 195.014V229.178C188.702 229.759 188.495 230.315 188.127 230.726C187.758 231.136 187.259 231.367 186.737 231.368Z" fill="#E6E6E6"/>
<path d="M186.737 300.447H152.291C151.77 300.447 151.271 300.216 150.902 299.805C150.534 299.395 150.326 298.838 150.326 298.257V264.094C150.326 263.513 150.534 262.956 150.902 262.546C151.271 262.135 151.77 261.904 152.291 261.904H186.737C187.259 261.904 187.758 262.135 188.127 262.546C188.495 262.956 188.702 263.513 188.703 264.094V298.257C188.702 298.838 188.495 299.395 188.127 299.805C187.758 300.216 187.259 300.447 186.737 300.447Z" fill="#E6E6E6"/>
<path d="M305.985 132.057H234.223C233.136 132.057 232.093 131.576 231.325 130.72C230.556 129.863 230.124 128.701 230.124 127.49C230.124 126.279 230.556 125.117 231.325 124.261C232.093 123.404 233.136 122.923 234.223 122.923H305.985C307.072 122.923 308.114 123.404 308.883 124.261C309.652 125.117 310.084 126.279 310.084 127.49C310.084 128.701 309.652 129.863 308.883 130.72C308.114 131.576 307.072 132.057 305.985 132.057Z" fill="#CCCCCC"/>
<path d="M322.893 147.472H234.223C233.685 147.472 233.152 147.353 232.655 147.124C232.157 146.894 231.705 146.558 231.325 146.134C230.944 145.71 230.642 145.206 230.436 144.652C230.23 144.098 230.124 143.504 230.124 142.904C230.124 142.305 230.23 141.711 230.436 141.157C230.642 140.602 230.944 140.099 231.325 139.675C231.705 139.251 232.157 138.914 232.655 138.685C233.152 138.455 233.685 138.337 234.223 138.337H322.893C323.98 138.337 325.023 138.818 325.792 139.675C326.56 140.531 326.992 141.693 326.992 142.904C326.992 144.116 326.56 145.277 325.792 146.134C325.023 146.99 323.98 147.472 322.893 147.472Z" fill="#CCCCCC"/>
<path d="M218.341 166.152H152.183C151.662 166.151 151.163 165.92 150.794 165.51C150.426 165.099 150.218 164.543 150.218 163.962V106.432C150.218 105.852 150.426 105.295 150.794 104.885C151.163 104.474 151.662 104.243 152.183 104.242H218.341C218.862 104.243 219.362 104.474 219.73 104.885C220.099 105.295 220.306 105.852 220.307 106.432V163.962C220.306 164.543 220.099 165.099 219.73 165.51C219.362 165.92 218.862 166.151 218.341 166.152Z" fill="#7868e6"/>
</g>
<defs>
<clipPath id="clip0_7:156">
<rect width="400" height="400" fill="white"/>
</clipPath>
</defs>
</svg>
