<svg
        width="459"
        height="360"
        viewBox="0 0 459 360"
        fill="none"
        xmlns="http://www.w3.org/2000/svg"
      >
        <g clip-path="url(#clip0_2:26)">
          <path
            opacity="0.1"
            d="M396.196 206.517C381.683 232.245 384.249 267.191 390.467 294.745C392.548 303.972 394.953 313.701 393.102 324.04C390.837 336.68 382.726 346.645 374.533 352.347C359.595 362.75 342.588 362.537 330.272 351.798C319.61 342.516 312.631 326.277 301.757 317.498C283.537 302.805 258.444 311.879 236.616 325.802C221.171 335.647 204.173 348.107 189.971 341.164C179.978 336.279 173.799 322.393 170.934 307.261C169.556 299.958 168.738 291.978 165.534 286.419C163.627 283.115 160.997 280.91 158.269 279.107C133.368 262.651 99.5373 276.662 75.5382 258.01C59.3274 245.411 50.1815 219.286 47.2577 191.316C44.3339 163.346 46.9215 133.383 50.1474 103.881C52.4541 82.9186 55.5524 60.4706 65.6134 43.3784C76.2532 25.2991 92.9534 17.1705 107.432 18.7898C121.911 20.409 134.449 30.4798 145.242 42.7787C158.733 58.1501 170.871 77.8072 188.388 82.7018C200.304 86.0372 213.379 82.0514 226.074 79.7724C247.298 75.9619 268.208 76.9306 288.959 78.227C308.83 79.4679 328.825 81.0457 347.316 88.6668C360.403 94.0597 370.418 105.367 382.619 112.693C390.574 117.467 399.566 118.035 406.972 124.419C416.092 132.262 423.953 146.84 420.216 165.298C416.662 182.851 403.895 192.866 396.196 206.517Z"
            fill="#6C63FF"
          />
          <path
            d="M125.252 127.926C125.252 127.926 62.6301 112.748 142.309 23.9474C142.309 23.9474 176.654 59.2342 164.057 103.097C158.992 120.734 142.692 131.621 126.179 128.133L125.252 127.926Z"
            fill="#6C63FF"
          />
          <path
            opacity="0.4"
            d="M125.251 127.926C123.877 127.593 63.9664 111.249 142.309 23.9474C142.309 23.9474 176.654 59.2342 164.057 103.097C158.992 120.734 142.692 131.621 126.179 128.133L125.251 127.926Z"
            fill="white"
          />
          <path
            d="M126.081 128.433C126.081 128.433 159.158 74.421 142.318 23.952"
            stroke="#535461"
            stroke-miterlimit="10"
          />
          <path
            d="M382.866 180.374C382.866 180.374 372.073 133.268 388.429 99.7294C395.298 85.6543 398.026 69.6187 395.732 53.8921C394.631 46.432 392.901 39.097 390.565 31.9791"
            stroke="#535461"
            stroke-width="2"
            stroke-miterlimit="10"
          />
          <path
            d="M400.758 10.7766C400.532 16.4785 390.356 32.565 390.356 32.565C390.356 32.565 381.487 15.5928 381.713 9.89082C381.869 7.19101 382.996 4.66534 384.851 2.85615C386.707 1.04696 389.143 0.0985141 391.636 0.214471C394.129 0.330428 396.481 1.50154 398.187 3.47634C399.892 5.45114 400.815 8.07215 400.758 10.7766Z"
            fill="#6C63FF"
          />
          <path
            d="M415.253 43.0832C412.206 47.738 395.595 55.2483 395.595 55.2483C395.595 55.2483 396.659 35.7758 399.707 31.121C400.419 29.9818 401.334 29.0082 402.397 28.2574C403.461 27.5065 404.653 26.9936 405.902 26.7487C407.151 26.5038 408.433 26.5317 409.672 26.831C410.911 27.1303 412.083 27.6949 413.118 28.4915C414.153 29.2882 415.031 30.301 415.7 31.4704C416.369 32.6398 416.816 33.9423 417.015 35.3015C417.213 36.6607 417.16 38.0491 416.856 39.3854C416.553 40.7217 416.007 41.9789 415.249 43.0832H415.253Z"
            fill="#6C63FF"
          />
          <path
            d="M412.432 97.0121C407.635 99.3603 389.799 96.7584 389.799 96.7584C389.799 96.7584 399.787 80.5336 404.584 78.1808C406.879 77.114 409.468 77.0656 411.795 78.0459C414.122 79.0263 416.002 80.9572 417.03 83.4236C418.057 85.8901 418.152 88.6952 417.292 91.2362C416.432 93.7771 414.687 95.851 412.432 97.0121Z"
            fill="#6C63FF"
          />
          <path
            d="M401.822 137.295C397.46 140.487 379.474 141.189 379.474 141.189C379.474 141.189 386.79 123.368 391.152 120.171C393.248 118.695 395.794 118.17 398.243 118.709C400.692 119.248 402.848 120.808 404.246 123.053C405.645 125.297 406.174 128.047 405.721 130.711C405.268 133.375 403.867 135.739 401.822 137.295Z"
            fill="#6C63FF"
          />
          <path
            d="M375.559 55.4421C379.172 59.594 396.587 64.521 396.587 64.521C396.587 64.521 393.029 45.3991 389.416 41.2517C387.667 39.3192 385.289 38.2078 382.792 38.1563C380.295 38.1048 377.879 39.1174 376.064 40.9764C374.248 42.8354 373.178 45.3923 373.084 48.0974C372.99 50.8025 373.878 53.4397 375.559 55.4421Z"
            fill="#6C63FF"
          />
          <path
            d="M363.702 102.705C368.298 105.473 386.258 104.55 386.258 104.55C386.258 104.55 377.606 87.4535 373.005 84.6717C370.804 83.4117 368.236 83.1346 365.85 83.8995C363.463 84.6645 361.447 86.4108 360.232 88.7654C359.017 91.12 358.7 93.8962 359.349 96.5009C359.997 99.1055 361.559 101.332 363.702 102.705Z"
            fill="#6C63FF"
          />
          <path
            d="M357.994 150.374C362.089 153.958 379.951 156.325 379.951 156.325C379.951 156.325 374.069 137.872 369.975 134.301C368.003 132.643 365.51 131.889 363.031 132.202C360.552 132.514 358.285 133.868 356.717 135.972C355.148 138.076 354.404 140.763 354.642 143.456C354.881 146.148 356.085 148.632 357.994 150.374Z"
            fill="#6C63FF"
          />
          <path
            d="M400.758 10.7766C400.532 16.4785 390.356 32.565 390.356 32.565C390.356 32.565 381.487 15.5928 381.713 9.89082C381.869 7.19101 382.996 4.66534 384.851 2.85615C386.707 1.04696 389.143 0.0985141 391.636 0.214471C394.129 0.330428 396.481 1.50154 398.187 3.47634C399.892 5.45114 400.815 8.07215 400.758 10.7766Z"
            fill="#FC6681"
          />
          <path
            d="M415.253 43.0832C412.206 47.738 395.595 55.2483 395.595 55.2483C395.595 55.2483 396.659 35.7758 399.707 31.121C400.419 29.9818 401.334 29.0082 402.397 28.2574C403.461 27.5065 404.653 26.9936 405.902 26.7487C407.151 26.5038 408.433 26.5317 409.672 26.831C410.911 27.1303 412.083 27.6949 413.118 28.4915C414.153 29.2882 415.031 30.301 415.7 31.4704C416.369 32.6398 416.816 33.9423 417.015 35.3015C417.213 36.6607 417.16 38.0491 416.856 39.3854C416.553 40.7217 416.007 41.9789 415.249 43.0832H415.253Z"
            fill="#FC6681"
          />
          <path
            d="M412.432 97.0121C407.635 99.3603 389.799 96.7584 389.799 96.7584C389.799 96.7584 399.787 80.5336 404.584 78.1808C406.879 77.114 409.468 77.0656 411.795 78.0459C414.122 79.0263 416.002 80.9572 417.03 83.4236C418.057 85.8901 418.152 88.6952 417.292 91.2362C416.432 93.7771 414.687 95.851 412.432 97.0121Z"
            fill="#FC6681"
          />
          <path
            d="M401.822 137.295C397.46 140.487 379.474 141.189 379.474 141.189C379.474 141.189 386.79 123.368 391.152 120.171C393.248 118.695 395.794 118.17 398.243 118.709C400.692 119.248 402.848 120.808 404.246 123.053C405.645 125.297 406.174 128.047 405.721 130.711C405.268 133.375 403.867 135.739 401.822 137.295Z"
            fill="#FC6681"
          />
          <path
            d="M375.559 55.4421C379.172 59.594 396.587 64.521 396.587 64.521C396.587 64.521 393.029 45.3991 389.416 41.2517C387.667 39.3192 385.289 38.2078 382.792 38.1563C380.295 38.1048 377.879 39.1174 376.064 40.9764C374.248 42.8354 373.178 45.3923 373.084 48.0974C372.99 50.8025 373.878 53.4397 375.559 55.4421Z"
            fill="#FC6681"
          />
          <path
            d="M363.702 102.705C368.298 105.473 386.258 104.55 386.258 104.55C386.258 104.55 377.606 87.4535 373.005 84.6717C370.804 83.4117 368.236 83.1346 365.85 83.8995C363.463 84.6645 361.447 86.4108 360.232 88.7654C359.017 91.12 358.7 93.8962 359.349 96.5009C359.997 99.1055 361.559 101.332 363.702 102.705Z"
            fill="#FC6681"
          />
          <path
            d="M357.994 150.374C362.089 153.958 379.951 156.325 379.951 156.325C379.951 156.325 374.069 137.872 369.975 134.301C368.003 132.643 365.51 131.889 363.031 132.202C360.552 132.514 358.285 133.868 356.717 135.972C355.148 138.076 354.404 140.763 354.642 143.456C354.881 146.148 356.085 148.632 357.994 150.374Z"
            fill="#FC6681"
          />
          <path
            d="M343.354 149.949C343.354 149.949 388.62 108.831 398.681 88.0947C408.742 67.3581 421.565 49.4956 421.565 49.4956"
            stroke="#535461"
            stroke-width="2"
            stroke-miterlimit="10"
          />
          <path
            d="M415.628 95.8404L396.051 91.0518C396.051 91.0518 400.664 113.445 415.628 95.8404Z"
            fill="#6C63FF"
          />
          <path
            d="M385.692 72.9725L396.962 91.2686C396.962 91.2686 374.942 93.0032 385.692 72.9725Z"
            fill="#6C63FF"
          />
          <path
            d="M423.331 78.6422L405.431 75.2376C405.431 75.2376 416.679 93.7782 423.331 78.6422Z"
            fill="#6C63FF"
          />
          <path
            d="M396.859 62.2974L405.695 74.8178C405.695 74.8178 390.054 76.4139 396.859 62.2974Z"
            fill="#6C63FF"
          />
          <path
            d="M414.692 59.8016C414.692 59.8016 429.949 60.5905 431.715 62.1682C433.482 63.746 429.443 73.0001 423.629 71.4916C417.815 69.9831 414.692 59.8016 414.692 59.8016Z"
            fill="#6C63FF"
          />
          <path
            d="M408.597 45.0346C408.597 45.0346 414.824 57.3335 414.589 59.6725C414.355 62.0114 405.103 64.6409 403.231 55.7743C401.358 46.9076 408.597 45.0346 408.597 45.0346Z"
            fill="#6C63FF"
          />
          <path
            d="M429.014 53.0093C429.724 50.5803 428.483 47.9878 426.242 47.2186C424.001 46.4495 421.609 47.7951 420.9 50.2241C420.19 52.653 421.432 55.2456 423.672 56.0147C425.913 56.7838 428.305 55.4383 429.014 53.0093Z"
            fill="#FFD037"
          />
          <path
            d="M422.355 48.3042C423.064 45.8752 421.823 43.2826 419.582 42.5135C417.341 41.7444 414.949 43.09 414.24 45.5189C413.53 47.9479 414.772 50.5405 417.012 51.3096C419.253 52.0787 421.645 50.7331 422.355 48.3042Z"
            fill="#FFD037"
          />
          <path
            d="M139.96 160.504C139.96 160.504 158.26 145.742 135.278 94.0735C135.278 94.0735 104.636 53.0155 135.278 14.2642C135.278 14.2642 68.4605 16.1095 69.7373 83.463C71.0141 150.817 103.146 160.504 103.146 160.504H139.96Z"
            fill="#6C63FF"
          />
          <path
            d="M122.868 160.504C122.868 160.504 118.259 124.982 105.917 103.3C103.479 98.9147 101.726 94.1232 100.729 89.1189C96.6049 69.4526 102.487 48.8867 115.812 34.8116L135.283 14.2503"
            stroke="#535461"
            stroke-width="2"
            stroke-miterlimit="10"
          />
          <path
            d="M178.072 41.9207C178.072 41.9207 182.276 47.881 176.131 56.8768C169.985 65.8727 164.921 73.4845 166.968 79.0758C166.968 79.0758 176.237 62.3666 183.783 62.1313C191.329 61.896 186.371 51.9683 178.072 41.9207Z"
            fill="#6C63FF"
          />
          <path
            opacity="0.1"
            d="M178.072 41.9207C178.435 42.4967 178.722 43.1257 178.923 43.789C186.285 53.1632 190.205 61.9145 183.132 62.1359C176.539 62.3389 168.632 75.1176 166.738 78.3423C166.801 78.5912 166.876 78.8361 166.964 79.0758C166.964 79.0758 176.233 62.3666 183.779 62.1313C191.324 61.896 186.371 51.9683 178.072 41.9207Z"
            fill="black"
          />
          <path
            d="M185.885 49.5141C185.885 51.6131 185.668 53.3108 185.4 53.3108C185.132 53.3108 184.915 51.6085 184.915 49.5141C184.915 47.4197 185.187 48.4023 185.456 48.4023C185.724 48.4023 185.885 47.4197 185.885 49.5141Z"
            fill="#FFD037"
          />
          <path
            d="M188.567 52.0191C186.864 53.0248 185.387 53.6291 185.26 53.3754C185.132 53.1216 186.405 52.1021 188.103 51.0964C189.801 50.0907 189.133 50.8242 189.26 51.0964C189.388 51.3686 190.265 51.0134 188.567 52.0191Z"
            fill="#FFD037"
          />
          <path
            d="M155.873 41.9207C155.873 41.9207 151.668 47.881 157.813 56.8768C163.959 65.8727 169.023 73.4845 166.976 79.0758C166.976 79.0758 157.707 62.3666 150.161 62.1313C142.616 61.896 147.565 51.9683 155.873 41.9207Z"
            fill="#6C63FF"
          />
          <path
            opacity="0.1"
            d="M155.873 41.9207C155.509 42.4967 155.222 43.1257 155.022 43.789C147.659 53.1632 143.739 61.9145 150.812 62.1359C157.405 62.3389 165.312 75.1176 167.206 78.3423C167.144 78.5912 167.068 78.8361 166.981 79.0758C166.981 79.0758 157.699 62.362 150.153 62.1359C142.607 61.9099 147.565 51.9683 155.873 41.9207Z"
            fill="black"
          />
          <path
            d="M148.05 49.5141C148.05 51.6131 148.267 53.3108 148.535 53.3108C148.804 53.3108 149.021 51.6085 149.021 49.5141C149.021 47.4197 148.748 48.4023 148.48 48.4023C148.212 48.4023 148.05 47.4197 148.05 49.5141Z"
            fill="#FFD037"
          />
          <path
            d="M145.369 52.0191C147.071 53.0248 148.548 53.6291 148.676 53.3754C148.804 53.1216 147.531 52.1021 145.833 51.0964C144.135 50.0907 144.803 50.8242 144.675 51.0964C144.548 51.3686 143.671 51.0134 145.369 52.0191Z"
            fill="#FFD037"
          />
          <path
            d="M459 297.919L421.714 120.088H407.861C407.308 113.292 406.937 106.709 406.797 100.509C406.797 100.509 356.577 112.42 316.529 77.9594C276.481 43.4984 229.398 80.9396 229.398 80.9396L229.215 80.7966V80.7274V80.815C225.946 78.3054 180.842 44.7993 142.279 77.9871C102.248 112.448 52.0115 100.537 52.0115 100.537C51.871 106.815 51.4965 113.454 50.9305 120.314H38.0776L0 298.561C0 298.561 154.788 304.844 209.029 299.05C210.974 303.506 219.358 306.855 229.402 306.855C240.689 306.855 249.869 302.625 250.188 297.352C292.411 300.835 383.266 306.403 459 297.919Z"
            fill="url(#paint0_linear_2:26)"
          />
          <path
            d="M42.0654 121.652L4.78784 296.189C4.78784 296.189 209.995 304.521 226.521 292.859C226.521 292.859 353.913 306.814 454.212 295.567L417.705 121.449L42.0654 121.652Z"
            fill="#E2E2EC"
          />
          <path
            opacity="0.1"
            d="M54.7482 127.681L19.9944 290.404C19.9944 290.404 211.315 298.173 226.721 287.3C226.721 287.3 345.491 300.309 439.002 289.823L404.954 127.487L54.7482 127.681Z"
            fill="black"
          />
          <path
            d="M403.103 102.285C403.103 102.285 353.913 113.947 314.716 80.2061C275.519 46.4647 229.402 83.1216 229.402 83.1216C229.402 83.1216 183.289 46.4647 144.092 80.2061C104.895 113.947 55.7055 102.285 55.7055 102.285C54.1564 170.183 24.9651 280.154 24.9651 280.154C24.9651 280.154 78.764 295.982 149.859 263.911C220.954 231.839 229.406 275.158 229.406 275.158C229.406 275.158 237.859 231.835 308.954 263.911C380.049 295.986 433.847 280.154 433.847 280.154C433.847 280.154 404.639 170.183 403.103 102.285Z"
            fill="#F1F2FB"
          />
          <path
            opacity="0.1"
            d="M134.487 276.417C134.487 276.417 199.432 260.589 229.394 283.914C229.394 283.914 258.215 255.588 325.079 277.667"
            fill="black"
          />
          <path
            d="M229.402 304.313C240.651 304.313 249.771 300.024 249.771 294.732C249.771 289.44 240.651 285.15 229.402 285.15C218.153 285.15 209.033 289.44 209.033 294.732C209.033 300.024 218.153 304.313 229.402 304.313Z"
            fill="#E8EAF8"
          />
          <path
            opacity="0.1"
            d="M229.21 82.914C229.21 82.914 243.812 163.309 229.593 276.611L229.21 82.914Z"
            fill="black"
          />
          <path
            opacity="0.1"
            d="M69.7756 127.487C69.7756 127.487 100.363 135.191 126.839 127.487C153.315 119.783 201.926 94.581 217.915 127.487"
            stroke="black"
            stroke-width="4"
            stroke-miterlimit="10"
          />
          <path
            opacity="0.1"
            d="M69.7756 141.65C69.7756 141.65 100.363 149.354 126.839 141.65C153.315 133.946 210.642 134.361 217.915 141.65"
            stroke="black"
            stroke-width="4"
            stroke-miterlimit="10"
          />
          <path
            opacity="0.1"
            d="M69.7756 166.622C69.7756 166.622 100.363 174.326 126.839 166.622C153.315 158.917 201.926 133.715 217.915 166.622"
            stroke="black"
            stroke-width="4"
            stroke-miterlimit="10"
          />
          <path
            opacity="0.1"
            d="M69.7756 180.803C69.7756 180.803 100.363 188.507 126.839 180.803C153.315 173.099 210.642 173.514 217.915 180.803"
            stroke="black"
            stroke-width="4"
            stroke-miterlimit="10"
          />
          <path
            opacity="0.1"
            d="M389.033 127.487C389.033 127.487 358.446 135.191 331.97 127.487C305.494 119.783 256.883 94.581 240.893 127.487"
            stroke="black"
            stroke-width="4"
            stroke-miterlimit="10"
          />
          <path
            opacity="0.1"
            d="M389.033 141.65C389.033 141.65 358.446 149.354 331.97 141.65C305.494 133.946 248.166 134.361 240.893 141.65"
            stroke="black"
            stroke-width="4"
            stroke-miterlimit="10"
          />
          <path
            opacity="0.1"
            d="M389.033 166.622C389.033 166.622 358.446 174.326 331.97 166.622C305.494 158.917 256.883 133.715 240.893 166.622"
            stroke="black"
            stroke-width="4"
            stroke-miterlimit="10"
          />
          <path
            opacity="0.1"
            d="M389.033 180.803C389.033 180.803 358.446 188.507 331.97 180.803C305.494 173.099 248.166 173.514 240.893 180.803"
            stroke="black"
            stroke-width="4"
            stroke-miterlimit="10"
          />
          <path
            d="M389.654 330.757C390.931 329.7 392.144 328.45 392.514 326.941C392.704 326.14 392.603 325.29 392.231 324.568C391.86 323.845 391.247 323.304 390.518 323.057C388.684 322.439 386.726 323.56 385.237 324.695C383.747 325.83 382.049 327.126 380.104 326.886C382.117 325.308 383.083 322.734 382.521 320.428C382.427 319.925 382.192 319.466 381.849 319.113C380.832 318.149 378.985 318.564 377.768 319.32C373.89 321.733 372.809 326.388 372.788 330.581C372.397 329.068 372.729 327.495 372.716 325.94C372.703 324.386 372.226 322.67 370.745 321.835C369.798 321.391 368.772 321.178 367.741 321.212C366 321.156 364.055 321.309 362.868 322.439C361.391 323.823 361.774 326.189 363.059 327.73C364.344 329.271 366.302 330.24 368.102 331.306C369.477 332.117 370.864 333.063 371.707 334.346C371.815 334.516 371.905 334.698 371.975 334.89H382.9C385.3 333.82 387.569 332.432 389.654 330.757Z"
            fill="#6C63FF"
          />
          <path
            d="M314.116 164.633C314.116 164.633 314.222 165.298 314.401 166.479C314.308 166.663 314.214 166.848 314.116 167.028C310.626 173.394 310.09 182.565 310.418 190.094C310.723 196.166 311.705 202.176 313.341 207.993C315.338 215.553 316.34 223.381 316.321 231.244C317.702 232.863 319.361 234.173 321.206 235.101C321.3 235.41 321.398 235.724 321.483 236.023C323.091 241.834 324.179 247.798 324.73 253.835L325.828 268.902C325.828 268.902 334.242 303.003 336.8 309.346C338.622 313.858 338.222 323.186 337.838 328.187C336.745 331.55 335.413 334.756 334.238 335.107C332.11 335.762 329.982 341.316 333.08 344.107C333.313 344.316 333.562 344.501 333.825 344.661L333.949 344.735L334.174 344.859L334.506 345.021L334.676 345.09L335.03 345.219L335.183 345.27C335.349 345.321 335.519 345.371 335.702 345.418C337.859 345.878 340.097 345.493 342.018 344.333C344.35 343.955 346.423 342.599 347.976 341.229L347.934 343.632H350.487L350.368 338.83C350.828 338.272 351.083 337.907 351.083 337.907C351.083 337.907 351.159 335.005 351.453 331.628L351.266 342.465H353.819L353.13 322.467C353.259 322.168 353.43 321.892 353.636 321.65C355.764 319.343 352.087 311.902 350.185 310.661C351.036 305.771 354.283 298.708 358.029 285.168C363.514 265.331 356.564 245.914 356.564 245.914V230.69C358.407 229.832 359.493 229.246 359.493 229.246C359.493 229.246 356.939 212.989 359.493 201.493C361.148 194.061 361.578 187.46 360.195 181.144C362.033 174.28 363.519 168.979 363.519 168.979L366.072 140.432C366.723 136.146 367.162 132.479 367.443 129.36C367.489 128.973 367.523 128.581 367.54 128.193C368.009 122.385 367.906 118.505 367.6 115.968C367.749 114.805 367.8 113.63 367.753 112.457C367.812 111.855 367.835 111.25 367.821 110.644C368.187 110.183 368.545 109.722 368.885 109.26C369.792 108.04 370.562 106.709 371.179 105.293C373.992 99.5402 374.073 92.5142 370.145 87.4443C367.728 84.3211 366.974 80.958 364.885 77.6319C362.974 74.5871 362.612 70.938 362.153 67.432C361.583 63.0738 360.802 58.7513 359.812 54.4826C359.518 53.2278 357.909 52.4573 357.109 51.4147C355.564 49.3988 351.053 49.468 348.453 49.0205C344.086 48.2685 339.358 47.5673 335.383 49.4264C332.616 50.7228 330.629 53.0801 328.467 55.1607C326.139 57.3981 321.372 58.4776 320.632 61.1579C319.972 62.1821 319.938 63.4646 321.057 65.1807C322.138 66.8322 323.841 68.0132 325.428 69.2496C325.633 69.4064 325.824 69.5725 326.024 69.7109C325.486 73.271 326.016 76.9244 327.537 80.1333C329.058 83.3422 331.489 85.9373 334.472 87.5365C334.43 87.8364 334.383 88.1316 334.332 88.4223C333.865 91.0091 333.222 93.5548 332.408 96.0388C331.936 97.5704 326.471 100.246 322.619 101.962C322.174 101.466 321.643 101.07 321.057 100.795C318.129 100.002 308.256 105.948 307.524 107.932C307.319 108.485 307.856 110.017 308.728 111.945C308.786 112.824 308.918 113.695 309.124 114.547C308.907 118.607 309.298 125.158 311.184 135.69L314.116 164.633ZM355.186 169.094C355.049 168.813 354.909 168.527 354.76 168.232C350.696 159.323 348.282 144.921 354.105 136.331C354.624 136.391 355.143 136.446 355.662 136.483C356.007 148.173 355.807 167.392 355.807 167.392C355.807 167.392 355.577 168.038 355.186 169.094ZM340.677 236.992C341.503 241.49 342.473 246.717 343.38 251.469C344.458 257.001 344.385 262.725 343.167 268.224L339.728 257.041L338.928 237.366L338.877 236.558C339.43 236.457 339.979 236.348 340.524 236.231L340.677 236.992Z"
            fill="url(#paint1_linear_2:26)"
          />
          <path
            d="M343.333 250.611C344.394 256.057 344.323 261.69 343.124 267.103C342.91 268.132 342.625 269.142 342.273 270.125L343.243 312.889L343.354 317.738C344.253 317.943 345.163 318.087 346.078 318.172C346.927 318.267 347.783 318.267 348.631 318.172C349.483 318.056 350.232 317.779 350.632 317.249C351.032 316.718 351.117 315.865 350.551 314.624C349.928 313.26 349.687 311.729 349.857 310.218C349.891 309.794 349.955 309.346 350.032 308.885C350.883 304.074 354.062 297.117 357.752 283.794C363.153 264.28 356.313 245.158 356.313 245.158V227.194L338.673 225.242C338.673 225.242 339.524 230.077 340.694 236.36C341.486 240.789 342.439 245.933 343.333 250.611Z"
            fill="#FDC2CC"
          />
          <path
            opacity="0.1"
            d="M343.333 250.611C344.394 256.057 344.323 261.69 343.124 267.103C342.91 268.132 342.625 269.142 342.273 270.125L343.243 312.889L343.354 317.738C344.253 317.943 345.163 318.087 346.078 318.172C346.927 318.267 347.783 318.267 348.631 318.172C349.483 318.056 350.232 317.779 350.632 317.249C351.032 316.718 351.117 315.865 350.551 314.624C349.928 313.26 349.687 311.729 349.857 310.218C349.891 309.794 349.955 309.346 350.032 308.885C350.883 304.074 354.062 297.117 357.752 283.794C363.153 264.28 356.313 245.158 356.313 245.158V227.194L338.673 225.242C338.673 225.242 339.524 230.077 340.694 236.36C341.486 240.789 342.439 245.933 343.333 250.611Z"
            fill="black"
          />
          <path
            d="M318.849 227.194C320.012 229.852 320.99 232.602 321.772 235.419C323.355 241.137 324.426 247.008 324.969 252.949L326.05 267.781C326.05 267.781 334.332 301.342 336.851 307.589C338.643 312.031 338.251 321.212 337.873 326.143C337.719 328.145 337.57 329.446 337.57 329.446L341.243 324.57L346.057 318.172L348.253 315.251L348.734 314.615C348.153 313.306 347.683 311.942 347.329 310.541C346.215 306.267 345.482 301.888 345.137 297.463C344.056 285.367 343.699 268.971 343.699 268.971L343.129 267.126L339.724 256.096L338.937 236.72L338.643 229.546L318.849 227.194Z"
            fill="#FDC2CC"
          />
          <path
            d="M346.699 311.381C344.758 314.124 343.306 317.236 342.418 320.557C341.273 324.778 339.26 331.264 337.57 331.785C335.051 332.565 332.531 340.371 339.009 341.934C345.486 343.498 350.891 335.688 350.891 335.688C350.891 335.688 351.253 322.028 353.411 319.689C355.569 317.35 351.611 309.54 349.81 308.761C349.091 308.442 347.874 309.734 346.699 311.381Z"
            fill="#5F5D7E"
          />
          <path
            opacity="0.1"
            d="M336.851 340.763C338.545 341.147 340.305 340.974 341.907 340.265C343.88 339.409 345.589 337.967 346.841 336.106C348.092 334.245 348.833 332.039 348.981 329.742C349.287 325.562 349.934 319.943 351.249 318.518C352.951 316.672 350.823 311.413 348.993 308.899C349.111 308.813 349.245 308.756 349.386 308.732C349.526 308.708 349.67 308.718 349.806 308.761C351.606 309.54 355.569 317.346 353.407 319.689C351.245 322.033 350.887 335.688 350.887 335.688C350.887 335.688 345.495 343.494 339.013 341.925C338.07 341.728 337.186 341.286 336.434 340.638C336.57 340.684 336.706 340.726 336.851 340.763Z"
            fill="black"
          />
          <path
            d="M352.9 320.017L353.594 340.177H351.074L351.423 320.031C351.433 319.828 351.516 319.637 351.655 319.5C351.793 319.362 351.976 319.29 352.164 319.297C352.348 319.291 352.528 319.362 352.666 319.496C352.803 319.63 352.887 319.817 352.9 320.017Z"
            fill="#5F5D7E"
          />
          <path
            opacity="0.15"
            d="M352.9 320.017L353.594 340.177H351.074L351.423 320.031C351.433 319.828 351.516 319.637 351.655 319.5C351.793 319.362 351.976 319.29 352.164 319.297C352.348 319.291 352.528 319.362 352.666 319.496C352.803 319.63 352.887 319.817 352.9 320.017Z"
            fill="black"
          />
          <path
            d="M343.461 312.553C341.519 315.296 340.067 318.408 339.179 321.728C338.034 325.95 336.021 332.436 334.332 332.957C331.812 333.737 329.293 341.542 335.77 343.106C342.248 344.67 347.653 336.851 347.653 336.851C347.653 336.851 348.014 323.191 350.172 320.852C352.33 318.513 348.372 310.703 346.572 309.923C345.844 309.632 344.635 310.906 343.461 312.553Z"
            fill="#5F5D7E"
          />
          <path
            opacity="0.1"
            d="M333.612 341.925C335.306 342.31 337.067 342.136 338.668 341.427C340.641 340.571 342.351 339.13 343.602 337.269C344.853 335.407 345.594 333.202 345.742 330.904C346.048 326.725 346.695 321.106 348.01 319.68C349.712 317.835 347.584 312.576 345.754 310.062C345.872 309.976 346.006 309.919 346.147 309.895C346.287 309.871 346.431 309.881 346.567 309.923C348.367 310.703 352.33 318.508 350.168 320.852C348.006 323.195 347.652 336.851 347.652 336.851C347.652 336.851 342.252 344.656 335.77 343.097C334.827 342.9 333.942 342.458 333.191 341.81C333.344 341.856 333.468 341.898 333.612 341.925Z"
            fill="black"
          />
          <path
            d="M349.657 321.166L350.351 341.326H347.814L348.163 321.179C348.173 320.976 348.257 320.786 348.395 320.648C348.534 320.511 348.716 320.438 348.904 320.446C349.092 320.435 349.276 320.504 349.417 320.638C349.558 320.773 349.644 320.962 349.657 321.166Z"
            fill="#5F5D7E"
          />
          <path
            opacity="0.15"
            d="M349.657 321.166L350.351 341.326H347.814L348.163 321.179C348.173 320.976 348.257 320.786 348.395 320.648C348.534 320.511 348.716 320.438 348.904 320.446C349.092 320.435 349.276 320.504 349.417 320.638C349.558 320.773 349.644 320.962 349.657 321.166Z"
            fill="black"
          />
          <path
            d="M319.21 105.044L333.612 129.632L350.534 131.976C350.534 131.976 360.974 109.731 360.616 108.559C360.259 107.387 354.854 105.048 349.815 100.754C344.776 96.4586 350.896 78.5084 350.896 78.5084L334.336 80.0677C334.4 80.3076 334.464 80.529 334.51 80.7966C335.17 83.8275 334.936 87.1905 334.43 90.1476C333.968 92.6891 333.333 95.1902 332.531 97.6303C331.812 99.9693 319.21 105.044 319.21 105.044Z"
            fill="#FDC2CC"
          />
          <path
            opacity="0.1"
            d="M338.651 225.242C338.651 225.242 339.503 230.077 340.673 236.36C346.033 235.124 351.267 233.313 356.296 230.953V227.194L338.651 225.242Z"
            fill="black"
          />
          <path
            opacity="0.1"
            d="M318.849 227.194C320.012 229.852 320.99 232.602 321.772 235.419C326.782 237.869 333.012 237.799 338.941 236.706L338.647 229.533L318.849 227.194Z"
            fill="black"
          />
          <path
            d="M314.529 167.484C311.094 173.754 310.567 182.773 310.89 190.209C311.191 196.184 312.157 202.098 313.767 207.823C315.733 215.264 316.722 222.968 316.704 230.709C328.944 245.148 359.186 228.758 359.186 228.758C359.186 228.758 356.667 212.759 359.186 201.438C360.94 193.568 361.314 186.634 359.535 179.991C358.716 176.955 357.509 174.059 355.947 171.387C355.471 170.566 355.007 169.657 354.56 168.684C350.389 159.54 347.98 144.519 354.688 136.234C355.385 135.372 356.17 134.598 357.028 133.927C362.876 129.337 365.54 124.24 366.664 119.926C367.367 117.246 367.512 114.431 367.089 111.682C366.37 107.387 356.288 103.485 356.288 103.485C356.65 116.365 341.528 127.289 341.528 127.289C341.528 127.289 324.245 103.092 321.368 102.313C318.491 101.533 308.766 107.387 308.047 109.339C307.328 111.29 315.967 125.73 315.967 125.73C315.967 125.73 321.372 154.996 314.529 167.484Z"
            fill="#D39999"
          />
          <path
            opacity="0.1"
            d="M357.016 133.923C362.863 129.333 365.528 124.235 366.651 119.922C366.37 113.463 364.949 112.462 364.949 112.462C364.949 112.462 353.053 124.945 354.134 129.254C354.381 130.246 354.56 132.839 354.675 136.248C355.371 135.379 356.157 134.599 357.016 133.923Z"
            fill="black"
          />
          <path
            opacity="0.1"
            d="M336.851 222.903C339.371 231.101 351.972 216.657 352.334 210.415C352.564 206.42 356.628 190.758 359.522 179.995C358.704 176.96 357.496 174.064 355.935 171.392C355.458 170.57 354.994 169.662 354.547 168.688C353.181 172.328 347.695 187.247 348.014 191.685C348.376 196.76 345.852 204.173 345.852 204.173C345.852 204.173 334.331 214.706 336.851 222.903Z"
            fill="black"
          />
          <path
            d="M365.655 112.457C365.655 112.457 369.617 115.188 365.655 141.336L363.136 169.436C363.136 169.436 353.415 204.169 353.053 210.415C352.692 216.662 340.094 231.096 337.57 222.903C335.047 214.71 346.572 204.169 346.572 204.169C346.572 204.169 349.091 196.755 348.734 191.681C348.376 186.606 355.573 167.876 355.573 167.876C355.573 167.876 355.935 133.535 354.854 129.24C353.773 124.945 365.655 112.457 365.655 112.457Z"
            fill="#FDC2CC"
          />
          <path
            opacity="0.1"
            d="M312.371 109.334C312.371 109.334 307.69 110.506 312.371 136.654L315.252 165.145C315.252 165.145 321.734 206.125 321.372 210.817C321.011 215.508 335.417 227.6 336.494 220.966C337.57 214.332 329.293 203.403 329.293 203.403C329.293 203.403 325.684 194.804 325.684 178.801L324.964 165.92L319.93 119.483L312.371 109.334Z"
            fill="black"
          />
          <path
            d="M311.639 109.334C311.639 109.334 306.958 110.506 311.639 136.654L314.52 165.145C314.52 165.145 321.002 206.125 320.64 210.817C320.279 215.508 334.685 227.6 335.762 220.966C336.838 214.332 328.561 203.403 328.561 203.403C328.561 203.403 324.96 194.818 324.96 178.814L324.241 165.934L319.21 119.483L311.639 109.334Z"
            fill="#FDC2CC"
          />
          <path
            opacity="0.1"
            d="M309.311 110.7C309.311 110.7 307.149 123.188 322.27 127.483C337.392 131.778 320.47 112.646 320.47 112.646C320.47 112.646 314.712 103.286 309.311 110.7Z"
            fill="black"
          />
          <path
            d="M309.669 110.312C309.669 110.312 307.511 122.796 322.632 127.091C337.753 131.386 320.832 112.259 320.832 112.259C320.832 112.259 315.069 102.894 309.669 110.312Z"
            fill="#D39999"
          />
          <path
            opacity="0.1"
            d="M367.277 110.7C367.277 110.7 369.439 123.188 354.317 127.483C339.196 131.778 356.113 112.646 356.113 112.646C356.113 112.646 361.859 103.286 367.277 110.7Z"
            fill="black"
          />
          <path
            d="M366.915 110.312C366.915 110.312 369.094 122.796 353.956 127.091C338.817 131.386 355.756 112.259 355.756 112.259C355.756 112.259 361.514 102.894 366.915 110.312Z"
            fill="#D39999"
          />
          <path
            opacity="0.1"
            d="M334.429 90.143C336.417 90.7704 338.643 85.7235 340.992 85.7235C343.482 85.7235 345.827 91.1256 347.904 89.9815C348.509 86.3436 349.389 82.7655 350.534 79.2834L334.51 80.815C335.166 83.8275 334.936 87.1859 334.429 90.143Z"
            fill="black"
          />
          <path
            d="M341.354 90.9918C349.804 90.9918 356.654 83.5666 356.654 74.4072C356.654 65.2477 349.804 57.8225 341.354 57.8225C332.904 57.8225 326.054 65.2477 326.054 74.4072C326.054 83.5666 332.904 90.9918 341.354 90.9918Z"
            fill="#FDC2CC"
          />
          <path
            opacity="0.1"
            d="M321.36 67.2474C322.424 68.8713 324.1 70.0154 325.662 71.2517C327.593 72.7508 329.417 74.4055 331.118 76.2018C332.321 77.3925 333.349 78.7737 334.17 80.2983C335.383 82.7526 335.545 85.5298 335.689 88.2331L337.175 116.157C337.272 118.002 337.37 119.889 336.936 121.693C336.496 123.23 335.877 124.7 335.093 126.066C333.131 129.84 331.114 133.688 327.956 136.677C326.901 137.669 325.616 138.951 326.173 140.252C326.624 141.299 328.012 141.636 329.203 141.788C334.204 142.517 339.745 143.14 343.954 140.497C345.542 139.5 346.857 138.07 348.636 137.452C351.113 136.598 353.845 137.489 356.484 137.484C359.284 137.484 361.957 136.474 364.57 135.477C365.071 135.34 365.53 135.06 365.898 134.666C366.106 134.338 366.236 133.959 366.277 133.563C366.672 131.298 367.047 128.95 366.4 126.731C365.698 124.327 363.846 122.247 363.638 119.765C363.365 116.314 366.302 113.505 368.413 110.667C372.907 104.629 373.907 95.9326 369.294 89.9769C366.915 86.9045 366.17 83.5922 364.115 80.3214C362.233 77.3274 361.876 73.7337 361.425 70.2829C360.864 65.993 360.094 61.7383 359.118 57.5365C358.833 56.3002 357.245 55.5436 356.458 54.5148C354.935 52.5311 350.5 52.6003 347.946 52.1575C343.648 51.4194 339.009 50.7274 335.081 52.5588C332.357 53.8321 330.399 56.1572 328.271 58.2008C325.258 61.1164 317.946 62.0298 321.36 67.2474Z"
            fill="black"
          />
          <path
            d="M321.721 66.4678C322.785 68.0916 324.462 69.2357 326.024 70.4721C327.955 71.9741 329.779 73.6319 331.48 75.4313C332.682 76.6221 333.711 78.0033 334.532 79.5279C335.745 81.9822 335.906 84.7593 336.051 87.4627L337.549 115.378C337.647 117.223 337.745 119.11 337.311 120.913C336.871 122.45 336.251 123.92 335.468 125.287C333.506 129.06 331.489 132.908 328.331 135.897C327.275 136.889 325.99 138.172 326.548 139.473C326.999 140.52 328.386 140.857 329.578 141.009C334.579 141.738 340.12 142.36 344.329 139.717C345.916 138.721 347.231 137.29 349.01 136.672C351.487 135.819 354.22 136.709 356.858 136.705C359.659 136.705 362.331 135.694 364.944 134.698C365.446 134.56 365.904 134.28 366.272 133.886C366.481 133.558 366.611 133.179 366.651 132.783C367.047 130.518 367.421 128.17 366.774 125.951C366.072 123.548 364.221 121.467 364.012 118.985C363.74 115.534 366.677 112.725 368.788 109.888C373.282 103.849 374.282 95.153 369.669 89.1973C367.289 86.1249 366.545 82.8125 364.489 79.5417C362.608 76.5477 362.25 72.954 361.799 69.5033C361.238 65.2134 360.468 60.9587 359.493 56.7569C359.207 55.5205 357.62 54.764 356.833 53.7352C355.309 51.7515 350.874 51.8207 348.321 51.3778C344.022 50.6397 339.383 49.9477 335.455 51.7792C332.731 53.0524 330.774 55.3775 328.646 57.4212C325.599 60.3368 318.308 61.2502 321.721 66.4678Z"
            fill="#865A61"
          />
        </g>
        <defs>
          <linearGradient
            id="paint0_linear_2:26"
            x1="229.5"
            y1="306.851"
            x2="229.5"
            y2="63.3908"
            gradientUnits="userSpaceOnUse"
          >
            <stop stop-color="#808080" stop-opacity="0.25" />
            <stop offset="0.54" stop-color="#808080" stop-opacity="0.12" />
            <stop offset="1" stop-color="#808080" stop-opacity="0.1" />
          </linearGradient>
          <linearGradient
            id="paint1_linear_2:26"
            x1="-59188.7"
            y1="240638"
            x2="-59188.7"
            y2="48944.1"
            gradientUnits="userSpaceOnUse"
          >
            <stop stop-color="#808080" stop-opacity="0.25" />
            <stop offset="0.54" stop-color="#808080" stop-opacity="0.12" />
            <stop offset="1" stop-color="#808080" stop-opacity="0.1" />
          </linearGradient>
          <clipPath id="clip0_2:26">
            <rect width="459" height="360" fill="white" />
          </clipPath>
        </defs>
      </svg>