<svg width="32" height="32" viewBox="0 0 32 32" fill="none" xmlns="http://www.w3.org/2000/svg">
<path d="M25.5307 10.628C25.2931 10.2341 24.958 9.90797 24.5577 9.6812C24.1574 9.45443 23.7054 9.33464 23.2453 9.33337H20V6.66671C20 6.31309 19.8595 5.97395 19.6095 5.7239C19.3594 5.47385 19.0203 5.33337 18.6667 5.33337H5.33332C3.86266 5.33337 2.66666 6.52937 2.66666 8.00004V21.3334C2.66666 22.328 3.22132 23.188 4.03066 23.6454C4.19466 26.0707 6.19999 28 8.66666 28C11.012 28 12.9387 26.2547 13.2653 24H17.4013C17.728 26.2547 19.6547 28 22 28C24.3453 28 26.272 26.2547 26.5987 24H26.6667C28.1373 24 29.3333 22.804 29.3333 21.3334V17.3334C29.3336 17.0914 29.2677 16.8539 29.1427 16.6467L25.5307 10.628ZM20 12H23.2453L25.6453 16H20V12ZM8.66666 25.3334C7.56399 25.3334 6.66666 24.436 6.66666 23.3334C6.66666 22.2307 7.56399 21.3334 8.66666 21.3334C9.76932 21.3334 10.6667 22.2307 10.6667 23.3334C10.6667 24.436 9.76932 25.3334 8.66666 25.3334ZM22 25.3334C20.8973 25.3334 20 24.436 20 23.3334C20 22.2307 20.8973 21.3334 22 21.3334C23.1027 21.3334 24 22.2307 24 23.3334C24 24.436 23.1027 25.3334 22 25.3334Z" fill="white"/>
</svg>
