<svg width="459" height="360" viewBox="0 0 459 360" fill="none" xmlns="http://www.w3.org/2000/svg">
<g clip-path="url(#clip0_2:128)">
<path opacity="0.1" d="M269.188 60.8382C240.144 59.8421 212.479 50.5937 186.065 40.4732C159.652 30.3527 133.49 19.1387 105.142 13.7774C86.9095 10.3286 66.0561 9.8416 51.3685 19.484C37.2284 28.7811 32.6601 44.7853 30.2054 59.6517C28.3566 70.8348 27.2706 82.6022 32.337 93.0725C35.8507 100.342 42.0928 106.451 46.4053 113.437C61.425 137.663 50.812 167.538 34.5359 191.192C26.9071 202.291 18.0443 212.885 12.1567 224.688C6.26908 236.491 3.54067 250.033 8.69233 262.084C13.8036 274.038 25.9782 282.998 39.1625 289.307C65.9484 302.124 97.5 305.789 128.289 307.866C196.423 312.465 264.915 310.473 333.229 308.481C358.511 307.742 383.902 306.994 408.771 303.137C422.584 300.995 436.841 297.599 446.87 289.391C459.597 278.974 462.752 261.332 454.225 248.271C439.915 226.361 400.375 220.92 390.359 197.403C384.857 184.463 390.512 170.048 398.508 158.041C415.669 132.293 444.429 109.701 445.946 80.2691C446.987 60.0502 433.156 39.8091 411.778 30.242C389.372 20.1791 358.291 21.4541 341.768 38.0516C324.743 55.1537 294.829 61.7148 269.188 60.8382Z" fill="#6C63FF"/>
<path d="M195.408 305.696L41.8101 304.957L26.5481 269.641L80.5148 265.776L71.109 227.056L177.849 213.407L75.6369 178.353L84.6658 176.237L249.021 202.689L239.969 263.116L227.032 296.324L195.408 305.696Z" fill="#6C63FF"/>
<path d="M44.166 290.166C44.166 290.166 53.5898 288.678 59.244 295.248C59.244 295.248 55.0976 298.471 46.1764 294.009L44.166 290.166Z" fill="#6C63FF"/>
<path d="M43.1788 290.02C43.1788 290.02 37.1656 297.32 40.1273 305.448C40.1273 305.448 45.0277 303.514 45.5617 293.659L43.1788 290.02Z" fill="#6C63FF"/>
<path d="M37.7759 278.018C37.7759 278.018 41.5454 271.195 56.6234 280.745C56.6234 280.745 54.613 285.331 47.9535 284.959C41.2941 284.588 39.535 281.613 37.7759 278.018Z" fill="#6C63FF"/>
<path d="M36.802 277.526C36.802 277.526 28.9803 276.641 28.2219 294.305C28.2219 294.305 33.1806 295.319 36.7033 289.732C40.226 284.145 38.781 281.01 36.802 277.526Z" fill="#6C63FF"/>
<path d="M32.2472 263.435C32.2472 263.435 36.6449 251.41 52.6025 259.964C52.6025 259.964 48.9587 270.996 33.8806 267.525L32.2472 263.435Z" fill="#6C63FF"/>
<path d="M27.3469 245.46C27.3469 245.46 35.6398 233.312 50.3409 244.575C50.3409 244.575 45.1892 255.979 28.6034 249.781L27.3469 245.46Z" fill="#6C63FF"/>
<path d="M25.5878 228.354C25.5878 228.354 35.2628 217.193 49.8203 228.354C49.8203 228.354 40.6478 238.147 25.5878 231.205V228.354Z" fill="#6C63FF"/>
<path d="M24.08 211.738C24.08 211.738 33.8807 200.086 47.8278 211.119C47.8278 211.119 36.7706 221.407 24.08 214.466V211.738Z" fill="#6C63FF"/>
<path d="M24.9595 196.987C24.9595 196.987 35.2807 181.988 48.3304 192.153C48.3304 192.153 37.2732 205.044 24.9595 199.838V196.987Z" fill="#6C63FF"/>
<path d="M27.3469 179.757C27.3469 179.757 38.2785 164.881 50.9692 176.286C50.9692 176.286 38.0272 189.178 27.3469 182.484V179.757Z" fill="#6C63FF"/>
<path d="M30.9907 164.354C30.9907 164.354 43.9327 150.373 55.2232 155.943C55.2232 155.943 41.7383 170.791 30.4253 168.064L30.9907 164.354Z" fill="#6C63FF"/>
<path d="M35.5141 149.754C35.5141 149.754 50.4485 132.629 59.1364 138.349C59.1364 138.349 48.133 151.631 34.4551 152.959L35.5141 149.754Z" fill="#6C63FF"/>
<path d="M42.0434 132.82C42.0434 132.82 55.1155 118.839 64.6649 122.31C64.6649 122.31 53.4821 136.813 40.2888 137.185L42.0434 132.82Z" fill="#6C63FF"/>
<path d="M47.9535 116.979C47.9535 116.979 62.4032 103.591 68.6857 105.947C68.6857 105.947 58.2568 120.822 47.3252 119.954L47.9535 116.979Z" fill="#6C63FF"/>
<path d="M53.7334 102.352C53.7334 102.352 66.1728 86.3564 72.9623 87.5961C72.9623 87.5961 65.4189 101.856 53.7334 103.977V102.352Z" fill="#6C63FF"/>
<path d="M60.007 82.6288C60.007 82.6288 71.0013 70.3699 76.9428 70.3965C76.9428 70.3965 68.264 86.777 59.5537 86.6265L60.007 82.6288Z" fill="#6C63FF"/>
<path d="M63.7226 69.4978L74.3445 43.9618C74.3445 43.9618 74.874 67.0451 62.3718 74.2348L63.7226 69.4978Z" fill="#6C63FF"/>
<path d="M68.0351 41.3365C68.0351 41.3365 69.7942 20.0108 68.6633 18.2754C68.6633 18.2754 76.2562 36.0062 67.9633 50.7575L68.0351 41.3365Z" fill="#6C63FF"/>
<path d="M31.8344 263.151C31.8344 263.151 20.8221 256.417 13.6914 272.891C13.6914 272.891 23.4921 279.31 33.1313 267.353L31.8344 263.151Z" fill="#6C63FF"/>
<path d="M26.9924 244.774C26.9924 244.774 13.485 238.695 6.93323 255.895C6.93323 255.895 17.3667 262.979 28.222 249.121L26.9924 244.774Z" fill="#6C63FF"/>
<path d="M24.9595 229.376C24.9595 229.376 15.2844 218.215 0.726929 229.376C0.726929 229.376 9.89939 239.169 24.9595 232.227V229.376Z" fill="#6C63FF"/>
<path d="M23.7479 211.738C23.7479 211.738 13.9472 200.086 0 211.119C0 211.119 11.0572 221.407 23.7479 214.466V211.738Z" fill="#6C63FF"/>
<path d="M24.9595 197.412C24.9595 197.412 18.0846 180.611 3.14124 187.836C3.14124 187.836 11.2187 202.734 24.3492 200.201L24.9595 197.412Z" fill="#6C63FF"/>
<path d="M28.2129 179.672C28.2129 179.672 21.3784 162.579 6.22412 170.504C6.22412 170.504 15.5043 186.172 27.5398 182.311L28.2129 179.672Z" fill="#6C63FF"/>
<path d="M32.4492 164.438C32.4492 164.438 29.7567 145.698 17.1917 144.02C17.1917 144.02 19.8572 163.783 30.7574 167.816L32.4492 164.438Z" fill="#6C63FF"/>
<path d="M35.8327 149.789C35.8327 149.789 34.7826 127.21 24.394 126.422C24.394 126.422 24.7441 143.56 34.6615 152.985L35.8327 149.789Z" fill="#6C63FF"/>
<path d="M43.1205 132.187C43.1205 132.187 40.0241 113.411 30.1067 111.118C30.1067 111.118 31.3363 129.3 42.1377 136.795L43.1205 132.187Z" fill="#6C63FF"/>
<path d="M49.1292 117.134C49.1292 117.134 49.026 97.5749 42.9679 94.7017C42.9679 94.7017 39.2118 112.41 47.3746 119.631L49.1292 117.134Z" fill="#6C63FF"/>
<path d="M54.1957 102.13C54.1957 102.13 53.3475 81.9913 47.074 79.1534C47.074 79.1534 44.9289 95.0913 53.2578 103.45L54.1957 102.13Z" fill="#6C63FF"/>
<path d="M60.8821 84.2358C60.8821 84.2358 60.8462 67.8553 56.3676 64.0125C56.3676 64.0125 51.916 81.9558 58.5441 87.5296L60.8821 84.2358Z" fill="#6C63FF"/>
<path d="M63.1976 68.692L58.8402 41.4295C58.8402 41.4295 52.9212 63.769 63.404 73.615L63.1976 68.692Z" fill="#6C63FF"/>
<path d="M64.0457 41.5933C64.0457 41.5933 52.8629 23.2648 53.0917 21.2283C53.0917 21.2283 54.2809 40.4378 68.3492 50.0049L64.0457 41.5933Z" fill="#6C63FF"/>
<path d="M65.3561 36.1789C65.3561 36.1789 54.8014 10.1471 50.0267 8.03975C50.0267 8.03975 65.1047 15.6014 66.2356 35.4351L65.3561 36.1789Z" fill="#6C63FF"/>
<path d="M59.4998 86.7814L58.7773 86.5645C67.685 57.9074 69.9064 39.6365 65.0374 35.0544L65.5535 34.5142C70.7186 39.3487 68.6229 57.4204 59.4998 86.7814Z" fill="#444053"/>
<path d="M34.9711 153.88L33.9031 153.503C34.8499 150.878 35.8686 148.213 36.9366 145.588C46.2347 122.726 54.1507 101.458 59.2261 85.1301L60.155 84.6874C55.0706 101.046 47.2938 123.129 37.9867 146.021C36.9232 148.598 35.909 151.25 34.9711 153.88Z" fill="#444053"/>
<path d="M57.4446 311.611C57.301 311.456 42.8647 295.416 32.7992 268.034C26.9014 252.003 23.6192 235.151 23.0748 218.105C22.3837 196.797 26.9161 173.005 34.6795 151.392L35.5231 152.366C18.0936 200.874 25.0179 242.441 34.2038 267.472C44.1616 294.606 58.4363 310.469 58.5754 310.628L57.4446 311.611Z" fill="#444053"/>
<path d="M283.04 277.557C283.04 277.557 272.867 289.807 280.945 308.326L199.721 343.079L191.926 344.691L188.336 329.196L190.737 309.641V298.954L283.04 277.557Z" fill="#D5D6DB"/>
<path d="M26.5481 269.641L138.969 249.423L287.932 272.833L195.408 305.696L26.5481 269.641Z" fill="#6C63FF"/>
<path d="M26.5481 269.641L138.969 249.423L287.932 272.833L195.408 305.696L26.5481 269.641Z" fill="#6C63FF"/>
<path d="M26.5481 269.637C26.5481 269.637 16.0339 289.289 28.1501 307.441L194.861 343.079C194.861 343.079 184.513 327.425 195.395 305.696L26.5481 269.637Z" fill="#6C63FF"/>
<path opacity="0.1" d="M26.5481 269.637C26.5481 269.637 16.0339 289.289 28.1501 307.441L194.861 343.079C194.861 343.079 184.513 327.425 195.395 305.696L26.5481 269.637Z" fill="black"/>
<path opacity="0.1" d="M31.5158 276.45C31.5158 276.45 25.507 290.83 31.5158 300.136V276.45Z" fill="black"/>
<path d="M194.861 343.079L287.932 303.899C287.932 303.899 293.137 305.006 289.772 308.769C286.406 312.532 196.656 346.842 196.656 346.842L28.1501 307.441L194.861 343.079Z" fill="#6C63FF"/>
<path opacity="0.1" d="M194.861 343.079L287.932 303.899C287.932 303.899 293.137 305.006 289.772 308.769C286.406 312.532 196.656 346.842 196.656 346.842L28.1501 307.441L194.861 343.079Z" fill="black"/>
<path opacity="0.1" d="M187.232 309.654C187.232 309.654 178.257 320.279 187.232 336.217V309.654Z" fill="black"/>
<path opacity="0.1" d="M230.683 309.475L190.426 322.725L190.568 323.145L230.825 309.895L230.683 309.475Z" fill="black"/>
<path opacity="0.1" d="M238.747 308.156L190.414 326.288L190.573 326.702L238.906 308.57L238.747 308.156Z" fill="black"/>
<path opacity="0.1" d="M246.152 308.092L190.683 330.491L190.853 330.901L246.322 308.502L246.152 308.092Z" fill="black"/>
<path opacity="0.1" d="M254.204 306.174L191.331 334.194L191.516 334.598L254.389 306.578L254.204 306.174Z" fill="black"/>
<path opacity="0.1" d="M260.97 306.184L191.829 335.999L192.008 336.404L261.149 306.589L260.97 306.184Z" fill="black"/>
<path opacity="0.1" d="M275.767 303.704L192.871 339.027L193.049 339.433L275.945 304.111L275.767 303.704Z" fill="black"/>
<path opacity="0.3" d="M68.3133 271.802L147.293 255.421L195.408 264.497L130.69 285.083L68.3133 271.802Z" fill="white"/>
<path d="M287.932 272.833C287.932 272.833 292.015 274.458 289.619 276.968C287.223 279.479 195.395 305.696 195.395 305.696L287.932 272.833Z" fill="#6C63FF"/>
<path d="M327.597 234.977C327.597 234.977 317.428 247.222 325.506 265.745L244.282 300.499L236.487 302.119L232.897 286.624L235.334 267.074V256.373L327.597 234.977Z" fill="#D5D6DB"/>
<path d="M71.109 227.056L183.526 206.842L332.493 230.253L239.969 263.116L71.109 227.056Z" fill="#3A3768"/>
<path d="M71.0911 227.056C71.0911 227.056 60.5724 246.709 72.6887 264.86L239.399 300.499C239.399 300.499 229.056 284.831 239.951 263.111L71.0911 227.056Z" fill="#3A3768"/>
<path opacity="0.1" d="M71.0911 227.056C71.0911 227.056 60.5724 246.709 72.6887 264.86L239.399 300.499C239.399 300.499 229.056 284.831 239.951 263.111L187.232 251.853L71.0911 227.056Z" fill="black"/>
<path opacity="0.1" d="M76.0723 233.87C76.0723 233.87 70.068 248.245 76.0723 257.555V233.87Z" fill="black"/>
<path d="M239.417 300.499L332.493 261.318C332.493 261.318 337.694 262.425 334.328 266.188C330.962 269.951 241.212 304.262 241.212 304.262L72.7065 264.86L239.417 300.499Z" fill="#3A3768"/>
<path opacity="0.1" d="M239.417 300.499L332.493 261.318C332.493 261.318 337.694 262.425 334.328 266.188C330.962 269.951 241.212 304.262 241.212 304.262L72.7065 264.86L239.417 300.499Z" fill="black"/>
<path opacity="0.1" d="M231.789 267.074C231.789 267.074 222.814 277.699 231.789 293.637V267.074Z" fill="black"/>
<path opacity="0.1" d="M275.243 266.899L234.986 280.149L235.128 280.569L275.385 267.319L275.243 266.899Z" fill="black"/>
<path opacity="0.1" d="M283.312 265.578L234.979 283.71L235.139 284.124L283.472 265.992L283.312 265.578Z" fill="black"/>
<path opacity="0.1" d="M290.711 265.508L235.242 287.907L235.412 288.317L290.881 265.918L290.711 265.508Z" fill="black"/>
<path opacity="0.1" d="M298.769 263.591L235.895 291.611L236.08 292.015L298.953 263.995L298.769 263.591Z" fill="black"/>
<path opacity="0.1" d="M305.527 263.595L236.386 293.41L236.566 293.815L305.707 264L305.527 263.595Z" fill="black"/>
<path opacity="0.1" d="M320.328 261.115L237.432 296.438L237.61 296.844L320.506 261.522L320.328 261.115Z" fill="black"/>
<path opacity="0.45" d="M112.874 229.221L191.854 212.841L239.969 221.916L175.251 242.503L112.874 229.221Z" fill="white"/>
<path d="M332.493 230.253C332.493 230.253 336.572 231.878 334.18 234.383C331.788 236.889 239.969 263.111 239.969 263.111L332.493 230.253Z" fill="#3A3768"/>
<path d="M331.815 186.264C331.815 186.264 321.642 208.254 329.719 226.773L248.496 251.787L240.719 253.411L237.129 237.916L239.53 218.361V207.661L331.815 186.264Z" fill="#D5D6DB"/>
<path d="M75.3408 178.349L187.762 158.13L336.729 181.541L244.201 214.404L75.3408 178.349Z" fill="#6C63FF"/>
<path d="M75.3407 178.344C75.3407 178.344 64.8085 197.996 76.9248 216.148L243.636 251.787C243.636 251.787 233.287 236.119 244.183 214.404L75.3407 178.344Z" fill="#6C63FF"/>
<path opacity="0.1" d="M75.3407 178.344C75.3407 178.344 64.8085 197.996 76.9248 216.148L243.636 251.787C243.636 251.787 233.287 236.119 244.183 214.404L75.3407 178.344Z" fill="black"/>
<path opacity="0.1" d="M80.3084 185.158C80.3084 185.158 74.2997 199.537 80.3084 208.843V185.158Z" fill="black"/>
<path d="M243.654 251.787L336.724 222.346C336.724 222.346 341.93 223.453 338.564 227.216C335.199 230.979 245.449 255.55 245.449 255.55L76.9427 216.148L243.654 251.787Z" fill="#6C63FF"/>
<path opacity="0.1" d="M243.654 251.787L336.724 222.346C336.724 222.346 341.93 223.453 338.564 227.216C335.199 230.979 245.449 255.55 245.449 255.55L76.9427 216.148L243.654 251.787Z" fill="black"/>
<path opacity="0.1" d="M236.025 218.361C236.025 218.361 227.05 228.987 236.025 244.925V218.361Z" fill="black"/>
<path opacity="0.1" d="M279.481 218.186L239.224 231.436L239.366 231.856L279.623 218.606L279.481 218.186Z" fill="black"/>
<path opacity="0.1" d="M287.547 216.867L239.214 234.999L239.373 235.413L287.706 217.281L287.547 216.867Z" fill="black"/>
<path opacity="0.1" d="M294.941 216.8L239.473 239.198L239.643 239.608L295.111 217.209L294.941 216.8Z" fill="black"/>
<path opacity="0.1" d="M303.005 214.879L240.132 242.898L240.316 243.302L303.19 215.282L303.005 214.879Z" fill="black"/>
<path opacity="0.1" d="M309.766 214.886L240.625 244.701L240.805 245.107L309.946 215.292L309.766 214.886Z" fill="black"/>
<path opacity="0.1" d="M324.566 212.41L241.67 247.732L241.848 248.139L324.744 212.816L324.566 212.41Z" fill="black"/>
<path opacity="0.3" d="M117.106 180.509L196.086 164.129L244.201 173.204L179.482 193.791L117.106 180.509Z" fill="white"/>
<path d="M336.724 181.541C336.724 181.541 340.808 183.165 338.412 185.676C336.015 188.186 244.201 214.404 244.201 214.404L336.724 181.541Z" fill="#6C63FF"/>
<path d="M139.301 47.1494C139.301 47.1494 122.249 46.1356 124.241 57.9384C124.241 57.9384 123.842 60.0236 125.758 60.971C125.758 60.971 125.789 60.0856 127.508 60.3911C128.121 60.495 128.745 60.5247 129.366 60.4796C130.202 60.4231 130.998 60.0999 131.632 59.5588C131.632 59.5588 136.429 57.6019 138.296 49.8632C138.296 49.8632 139.678 48.1765 139.642 47.7426L136.752 48.9557C136.752 48.9557 137.735 51.0055 136.963 52.7099C136.963 52.7099 136.869 49.0309 136.312 49.1151C136.2 49.1151 134.818 49.8278 134.818 49.8278C134.818 49.8278 136.51 53.4006 135.231 55.9949C135.231 55.9949 135.716 51.5943 134.289 50.0846L132.26 51.2534C132.26 51.2534 134.239 54.9412 132.897 57.9517C132.897 57.9517 133.243 53.3341 131.834 51.5367L129.994 52.9534C129.994 52.9534 131.856 56.5881 130.721 59.085C130.721 59.085 130.573 53.7105 129.599 53.3032C129.599 53.3032 127.988 54.7021 127.746 55.2777C127.746 55.2777 129.02 57.934 128.226 59.3108C128.226 59.3108 127.746 55.7292 127.328 55.7115C127.328 55.7115 125.726 58.0845 125.56 59.696C125.638 58.1936 126.113 56.7375 126.938 55.4725C126.015 55.6448 125.163 56.0804 124.488 56.7254C124.488 56.7254 124.735 55.0475 127.337 54.9014C127.337 54.9014 128.661 53.0995 129.016 52.9933C129.016 52.9933 126.426 52.7763 124.86 53.4625C124.86 53.4625 126.242 51.882 129.487 52.5771L131.282 51.1161C131.282 51.1161 127.88 50.6734 126.435 51.1648C126.435 51.1648 128.1 49.7658 131.771 50.7841L133.75 49.6197C133.75 49.6197 130.847 49.0044 129.119 49.2257C129.119 49.2257 130.941 48.2562 134.329 49.3054L135.738 48.6812C135.738 48.6812 133.615 48.2695 132.992 48.2031C132.368 48.1366 132.337 47.9684 132.337 47.9684C133.684 47.7501 135.066 47.9033 136.33 48.4111C136.33 48.4111 139.359 47.3353 139.301 47.1494Z" fill="#6C63FF"/>
<path opacity="0.1" d="M379.203 95.6624C379.203 95.6624 362.151 94.6485 364.143 106.451C364.143 106.451 363.744 108.537 365.66 109.484C365.66 109.484 365.691 108.599 367.41 108.904C368.024 109.006 368.647 109.035 369.268 108.993C370.097 108.932 370.884 108.609 371.512 108.072C371.512 108.072 376.313 106.115 378.176 98.3762C378.176 98.3762 379.558 96.6895 379.522 96.2556L376.641 97.4686C376.641 97.4686 377.624 99.5184 376.852 101.223C376.852 101.223 376.757 97.5439 376.206 97.628C376.093 97.628 374.707 98.3408 374.707 98.3408C374.707 98.3408 376.399 101.914 375.124 104.508C375.124 104.508 375.609 100.107 374.177 98.5976L372.149 99.7663C372.149 99.7663 374.128 103.454 372.786 106.465C372.786 106.465 373.132 101.847 371.723 100.05L369.887 101.466C369.887 101.466 371.745 105.101 370.61 107.598C370.61 107.598 370.462 102.223 369.488 101.816C369.488 101.816 367.881 103.215 367.634 103.791C367.634 103.791 368.909 106.447 368.119 107.824C368.119 107.824 367.634 104.242 367.222 104.225C367.222 104.225 365.62 106.597 365.454 108.209C365.531 106.706 366.008 105.249 366.836 103.985C365.911 104.158 365.058 104.594 364.381 105.238C364.381 105.238 364.632 103.56 367.231 103.414C367.231 103.414 368.554 101.612 368.909 101.502C368.909 101.502 366.324 101.289 364.753 101.976C364.753 101.976 366.136 100.395 369.38 101.09L371.175 99.6291C371.175 99.6291 367.769 99.1864 366.329 99.6778C366.329 99.6778 367.989 98.2788 371.664 99.2971L373.639 98.1327C373.639 98.1327 370.735 97.5173 369.008 97.7387C369.008 97.7387 370.83 96.7691 374.218 97.8184L375.631 97.1942C375.631 97.1942 373.504 96.7824 372.88 96.716C372.257 96.6496 372.225 96.4814 372.225 96.4814C373.572 96.2603 374.955 96.4136 376.219 96.9241C376.219 96.9241 379.257 95.8483 379.203 95.6624Z" fill="#6C63FF"/>
<path opacity="0.1" d="M168.021 120.065C168.021 120.065 160.59 104.866 151.13 112.357C151.13 112.357 149.088 113.03 149.187 115.142C149.187 115.142 149.972 114.739 150.533 116.368C150.743 116.944 151.02 117.494 151.359 118.006C151.818 118.701 152.494 119.229 153.284 119.512C153.284 119.512 157.354 122.69 165.113 120.521C165.113 120.521 167.281 120.888 167.635 120.632L165.158 118.741C165.158 118.741 163.812 120.587 161.936 120.751C161.936 120.751 165.149 118.878 164.804 118.445C164.732 118.356 163.457 117.502 163.457 117.502C163.457 117.502 161.119 120.702 158.202 120.866C158.202 120.866 162.331 119.14 162.968 117.17L160.949 115.992C160.949 115.992 158.647 119.498 155.33 119.808C155.33 119.808 159.585 117.856 160.487 115.766L158.342 114.881C158.342 114.881 156.031 118.254 153.266 118.498C153.266 118.498 157.951 115.748 157.834 114.708C157.834 114.708 155.811 114.009 155.182 114.075C155.182 114.075 153.468 116.461 151.853 116.461C151.853 116.461 154.783 114.296 154.603 113.947C154.603 113.947 151.722 113.725 150.206 114.389C151.572 113.719 153.093 113.414 154.617 113.504C154.013 112.793 153.211 112.271 152.31 112.003C152.31 112.003 153.917 111.401 155.313 113.566C155.313 113.566 157.556 113.827 157.821 114.079C157.821 114.079 156.749 111.751 155.38 110.737C155.38 110.737 157.453 111.149 158.4 114.279L160.576 115.129C160.576 115.129 159.324 111.976 158.171 110.98C158.171 110.98 160.217 111.729 161.11 115.408L163.103 116.541C163.103 116.541 162.237 113.739 161.196 112.362C161.196 112.362 162.941 113.46 163.664 116.886L164.907 117.798C164.907 117.798 164.234 115.766 164.009 115.199C163.785 114.633 163.897 114.518 163.897 114.518C164.751 115.569 165.291 116.833 165.459 118.17C165.459 118.17 167.86 120.198 168.021 120.065Z" fill="#6C63FF"/>
<path opacity="0.1" d="M340.243 74.1906C340.243 74.1906 332.816 58.9921 323.352 66.4829C323.352 66.4829 321.314 67.1558 321.409 69.2676C321.409 69.2676 322.198 68.8691 322.755 70.4939C322.964 71.0722 323.243 71.6236 323.585 72.1364C324.042 72.8296 324.717 73.3566 325.506 73.6372C325.506 73.6372 329.58 76.8159 337.335 74.651C337.335 74.651 339.502 75.014 339.861 74.7572L337.398 72.8624C337.398 72.8624 336.051 74.713 334.18 74.8768C334.18 74.8768 337.389 72.9997 337.043 72.5658C336.971 72.4773 335.697 71.6228 335.697 71.6228C335.697 71.6228 333.363 74.8237 330.442 74.9875C330.442 74.9875 334.575 73.2609 335.212 71.2952L333.161 70.1264C333.161 70.1264 330.864 73.6283 327.543 73.9426C327.543 73.9426 331.797 71.9858 332.704 69.8962L330.554 69.0108C330.554 69.0108 328.243 72.3887 325.483 72.6278C325.483 72.6278 330.164 69.8785 330.047 68.8425C330.047 68.8425 328.028 68.1386 327.399 68.2095C327.399 68.2095 325.685 70.5913 324.065 70.5913C324.065 70.5913 327 68.4264 326.82 68.0766C326.82 68.0766 323.94 67.8553 322.418 68.5194C323.785 67.849 325.306 67.5437 326.829 67.6339C326.227 66.9224 325.427 66.4006 324.527 66.1331C324.527 66.1331 326.134 65.531 327.53 67.6959C327.53 67.6959 329.773 67.9615 330.038 68.2139C330.038 68.2139 328.966 65.8808 327.592 64.8669C327.592 64.8669 329.666 65.2831 330.612 68.4308L332.793 69.2808C332.793 69.2808 331.541 66.1243 330.388 65.1281C330.388 65.1281 332.434 65.8763 333.323 69.5553L335.32 70.6887C335.32 70.6887 334.449 67.8907 333.408 66.5094C333.408 66.5094 335.158 67.6074 335.876 71.034L337.119 71.946C337.119 71.946 336.451 69.9139 336.222 69.3472C335.993 68.7806 336.11 68.6699 336.11 68.6699C336.961 69.722 337.5 70.9862 337.667 72.3223C337.667 72.3223 340.104 74.3322 340.243 74.1906Z" fill="#6C63FF"/>
<path opacity="0.1" d="M363.977 149.368C363.977 149.368 356.55 134.165 347.073 141.656C347.073 141.656 345.035 142.329 345.13 144.441C345.13 144.441 345.919 144.043 346.476 145.667C346.683 146.245 346.961 146.797 347.301 147.31C347.759 148.003 348.433 148.53 349.222 148.811C349.222 148.811 353.297 151.994 361.056 149.824C361.056 149.824 363.219 150.192 363.578 149.931L361.101 148.04C361.101 148.04 359.754 149.891 357.879 150.055C357.879 150.055 361.087 148.177 360.742 147.744C360.67 147.655 359.395 146.801 359.395 146.801C359.395 146.801 357.062 150.001 354.14 150.17C354.14 150.17 358.273 148.439 358.911 146.473L356.887 145.295C356.887 145.295 354.589 148.802 351.268 149.112C351.268 149.112 355.523 147.155 356.429 145.065L354.28 144.18C354.28 144.18 351.969 147.553 349.209 147.797C349.209 147.797 353.894 145.047 353.777 144.007C353.777 144.007 351.753 143.303 351.125 143.374C351.125 143.374 349.411 145.756 347.791 145.756C347.791 145.756 350.725 143.591 350.546 143.241C350.546 143.241 347.665 143.02 346.144 143.684C347.512 143.014 349.034 142.709 350.559 142.798C349.956 142.086 349.154 141.564 348.253 141.298C348.253 141.298 349.859 140.691 351.255 142.86C351.255 142.86 353.499 143.122 353.763 143.374C353.763 143.374 352.691 141.045 351.322 140.027C351.322 140.027 353.396 140.443 354.342 143.591L356.519 144.441C356.519 144.441 355.267 141.284 354.114 140.293C354.114 140.293 356.16 141.036 357.048 144.72L359.045 145.849C359.045 145.849 358.175 143.051 357.134 141.67C357.134 141.67 358.884 142.767 359.606 146.199L360.849 147.084C360.849 147.084 360.176 145.052 359.952 144.485C359.727 143.919 359.84 143.808 359.84 143.808C360.693 144.859 361.232 146.124 361.397 147.46C361.397 147.46 363.838 149.501 363.977 149.368Z" fill="#6C63FF"/>
<path opacity="0.1" d="M90.6252 347.161C96.323 347.161 100.942 346.652 100.942 346.023C100.942 345.395 96.323 344.886 90.6252 344.886C84.9274 344.886 80.3084 345.395 80.3084 346.023C80.3084 346.652 84.9274 347.161 90.6252 347.161Z" fill="#6C63FF"/>
<path opacity="0.1" d="M22.994 327.823C28.6918 327.823 33.3108 327.314 33.3108 326.686C33.3108 326.057 28.6918 325.548 22.994 325.548C17.2962 325.548 12.6772 326.057 12.6772 326.686C12.6772 327.314 17.2962 327.823 22.994 327.823Z" fill="#6C63FF"/>
<path opacity="0.1" d="M142.178 360.004C147.875 360.004 152.494 359.495 152.494 358.867C152.494 358.238 147.875 357.729 142.178 357.729C136.48 357.729 131.861 358.238 131.861 358.867C131.861 359.495 136.48 360.004 142.178 360.004Z" fill="#6C63FF"/>
<path opacity="0.1" d="M406.357 332.029C412.055 332.029 416.674 331.52 416.674 330.891C416.674 330.263 412.055 329.754 406.357 329.754C400.659 329.754 396.04 330.263 396.04 330.891C396.04 331.52 400.659 332.029 406.357 332.029Z" fill="#6C63FF"/>
<path opacity="0.1" d="M320.507 326.508C326.204 326.508 330.823 325.999 330.823 325.371C330.823 324.742 326.204 324.233 320.507 324.233C314.809 324.233 310.19 324.742 310.19 325.371C310.19 325.999 314.809 326.508 320.507 326.508Z" fill="#6C63FF"/>
<path opacity="0.1" d="M264.969 353.435C271.708 353.435 277.171 352.509 277.171 351.367C277.171 350.225 271.708 349.3 264.969 349.3C258.231 349.3 252.768 350.225 252.768 351.367C252.768 352.509 258.231 353.435 264.969 353.435Z" fill="#6C63FF"/>
<path d="M270.413 330.586C270.413 330.586 253.423 339.245 262.2 349.446C262.2 349.446 263.026 351.659 265.414 351.504C265.414 351.504 264.938 350.645 266.76 349.959C267.408 349.712 268.024 349.389 268.595 348.998C269.367 348.472 269.943 347.712 270.238 346.834C270.238 346.834 273.711 342.247 271.018 333.76C271.018 333.76 271.368 331.361 271.063 330.971L268.999 333.765C268.999 333.765 271.131 335.177 271.377 337.253C271.377 337.253 269.134 333.769 268.685 334.154C268.586 334.234 267.662 335.682 267.662 335.682C267.662 335.682 271.359 338.156 271.633 341.37C271.633 341.37 269.551 336.868 267.303 336.226L266.015 338.493C266.015 338.493 270.054 340.919 270.502 344.567C270.502 344.567 268.155 339.94 265.759 339.006L264.812 341.401C264.812 341.401 268.707 343.845 269.066 346.882C269.066 346.882 265.808 341.804 264.637 341.964C264.637 341.964 263.901 344.213 264 344.908C264 344.908 266.751 346.723 266.8 348.507C266.8 348.507 264.26 345.342 263.87 345.55C263.87 345.55 263.708 348.733 264.489 350.389C264.489 350.389 263.143 348.024 263.363 345.55C262.576 346.236 262.009 347.135 261.734 348.135C261.734 348.135 261.002 346.386 263.412 344.775C263.412 344.775 263.641 342.3 263.919 341.995C263.919 341.995 261.312 343.252 260.204 344.793C260.204 344.793 260.612 342.495 264.148 341.353L265.046 338.927C265.046 338.927 261.509 340.405 260.419 341.707C260.419 341.707 261.204 339.427 265.324 338.333L266.544 336.12C266.544 336.12 263.403 337.165 261.868 338.333C261.868 338.333 263.058 336.372 266.921 335.469L267.913 334.074C267.913 334.074 265.633 334.876 264.996 335.164C264.359 335.451 264.233 335.31 264.233 335.31C265.398 334.338 266.813 333.703 268.321 333.477C268.321 333.477 270.57 330.736 270.413 330.586Z" fill="#6C63FF"/>
<path d="M320.839 167.033C317.904 159.166 301.749 158.427 294.739 160.432C289.758 161.862 279.257 163.474 273.648 164.284L273.285 163.943C274.012 163.731 274.029 163.208 273.94 162.434C273.887 161.412 273.902 160.389 273.985 159.37C277.422 160.424 280.482 157.931 280.482 157.931C284.521 156.16 283.435 148.581 284.207 146.509C284.786 144.959 285.41 135.831 285.688 131.279H285.746L285.778 129.752C285.818 129.092 285.836 128.707 285.836 128.707C285.836 128.707 286.231 117.577 287.003 115.324C287.721 113.252 288.304 102.813 288.394 101.157C288.394 101.015 288.394 100.94 288.394 100.94L288.336 99.975C288.376 99.271 288.394 98.4874 288.389 97.664C288.389 93.8787 287.99 89.1107 287.941 88.3403C287.941 88.2297 287.941 88.0969 287.941 87.9375C287.972 86.3216 287.766 78.2287 280.788 75.1695C278.216 74.0362 275.124 72.6859 272.131 71.371C271.359 64.7966 269.596 58.2577 269.748 51.6347C269.748 50.6385 269.838 49.6424 269.937 48.6507C269.937 48.9385 269.905 49.2307 269.901 49.5362C269.901 50.1781 269.901 50.8245 269.901 51.4664C270.166 43.1832 273.338 34.8557 273.042 26.7495C273.015 27.542 272.957 28.3389 272.881 29.1358C273.036 26.3939 272.745 23.6453 272.019 20.9942C271.75 20.0601 271.386 19.0949 270.61 18.4707C269.876 17.968 269.035 17.6392 268.151 17.51C266.027 16.9738 263.87 16.5774 261.693 16.3235C261.363 15.3246 260.872 14.3845 260.239 13.5388C255.689 7.37622 248.949 1.58547 240.979 0.257323C236.981 -0.406753 232.381 0.146643 229.661 2.96675C229.377 3.21449 229.111 3.48072 228.863 3.76364C227.4 5.48581 226.772 7.7481 225.273 9.46584C225.174 9.58095 225.062 9.6872 224.954 9.79788C222.019 12.3878 217.446 12.9279 214.184 15.2522C213.609 15.6694 213.07 16.1329 212.573 16.6379C211.259 17.923 210.08 19.3367 209.055 20.857C207.587 22.8935 206.08 25.0141 205.613 27.4446C204.675 32.3145 208.036 36.932 208.66 41.8329C210.051 52.799 197.751 62.5299 200.08 73.3499C200.701 76.0081 202.074 78.438 204.038 80.3582C199.241 84.6437 195.157 88.8008 195.157 88.8008V89.0487H194.399L194.475 89.9341H194.399L194.816 94.7376L194.399 101.733C194.399 101.733 194.399 101.808 194.399 101.949V101.985V102.175C194.399 102.175 194.399 102.251 194.399 102.392H194.426C194.565 104.956 195.117 114.173 195.772 116.116C196.544 118.37 196.934 129.5 196.934 129.5C196.934 129.5 197.787 145.23 198.568 147.31C199.348 149.391 198.24 156.948 202.292 158.732C203.478 159.629 204.881 160.204 206.362 160.397C206.156 162.053 206.286 163.253 206.955 163.629C207.241 163.795 207.565 163.886 207.897 163.894C207.622 164.297 207.378 164.718 207.166 165.156C205.557 164.991 203.977 164.623 202.463 164.063C198.11 162.292 183.665 158.307 179.469 161.11C175.273 163.912 165.176 166.453 169.839 177.734C174.501 189.014 176.673 189.298 176.673 189.298C178.108 190.325 179.367 191.573 180.402 192.994C181.802 195.071 194.847 199.821 198.11 199.821C199.496 199.8 200.883 199.868 202.261 200.025C202.261 200.025 198.72 203.088 199.191 204.868C199.663 206.648 198.114 220.894 198.114 220.894C198.114 220.894 201.704 224.463 203.239 219.783L203.293 219.854C203.58 220.239 205.133 221.979 208.054 219.783C209.25 218.888 210.52 218.094 211.851 217.41L225.995 215.436C227.47 215.345 228.949 215.334 230.424 215.405C232.668 215.586 234.871 214.276 236.258 213.262C239.188 214.36 242.482 215.56 244.048 215.998C247.226 216.883 261.828 220.748 265.243 219.54C265.953 219.261 266.584 218.818 267.083 218.247L270.341 218.349L268.815 218.65C268.815 218.65 271.786 218.698 275.824 218.752L275.654 218.849L280.72 218.805C288.134 218.871 296.462 218.893 297.557 218.65C299.272 218.273 308.179 218.539 310.805 218.65H311.536C311.536 218.65 321.323 216.724 317.285 206.927C314.179 199.4 304.634 197.213 300.398 196.611C301.592 196.377 302.619 196.195 303.301 196.089C306.259 195.646 312.003 192.99 312.469 192.082C312.936 191.175 317.751 188.541 318.994 187.04C320.237 185.539 323.787 174.9 320.839 167.033ZM239.772 189.05L239.292 189.205L238.969 189.311L238.349 189.913C237.856 189.585 237.326 189.24 236.774 188.886C237.748 188.943 238.749 189.001 239.772 189.05Z" fill="url(#paint0_linear_2:128)"/>
<path d="M268.384 142.369C268.384 142.369 275.25 160.078 279.154 158.307C283.058 156.536 281.999 149.01 282.744 146.947C283.489 144.884 284.315 129.238 284.315 129.238C284.315 129.238 284.692 118.17 285.437 115.93C286.128 113.871 286.689 103.49 286.783 101.856C286.783 101.714 286.783 101.639 286.783 101.639L286.043 88.8002L281.851 87.7687L272.131 91.3104L270.785 98.8942L270.26 101.856L270.036 103.118L268.384 142.369Z" fill="#BE6F72"/>
<path opacity="0.1" d="M270.646 139.403C270.646 139.403 277.198 144.693 279.172 145.158C281.147 145.623 282.358 149.749 282.358 149.749" fill="black"/>
<path d="M214.691 143.144C214.691 143.144 207.825 160.852 203.921 159.082C200.017 157.311 201.076 149.785 200.331 147.721C199.586 145.658 198.761 130.013 198.761 130.013C198.761 130.013 198.384 118.945 197.639 116.705C196.948 114.646 196.387 104.264 196.292 102.631C196.292 102.489 196.292 102.414 196.292 102.414L197.037 89.575L201.229 88.5435L210.949 92.0852L212.295 99.6689L212.82 102.631L213.044 103.892L214.691 143.144Z" fill="#BE6F72"/>
<path d="M259.4 48.3757H244.075V71.9416H259.4V48.3757Z" fill="#3E373A"/>
<path opacity="0.1" d="M259.4 48.3757H244.075V71.9416H259.4V48.3757Z" fill="black"/>
<path d="M211.999 160.782C211.999 160.782 206.762 166.462 208.705 167.493C210.648 168.525 223.217 187.858 223.217 187.858C223.217 187.858 264.502 192.874 272.288 185.348C280.074 177.822 279.917 164.376 279.917 164.376C279.917 164.376 273.661 165.705 272.979 164.983C272.297 164.261 268.55 160.782 268.55 160.782C268.55 160.782 215.589 157.612 211.999 160.782Z" fill="#4B4B5B"/>
<path opacity="0.02" d="M211.999 160.782C211.999 160.782 206.762 166.462 208.705 167.493C210.648 168.525 223.217 187.858 223.217 187.858C223.217 187.858 264.502 192.874 272.288 185.348C280.074 177.822 279.917 164.376 279.917 164.376C279.917 164.376 273.661 165.705 272.979 164.983C272.297 164.261 268.55 160.782 268.55 160.782C268.55 160.782 215.589 157.612 211.999 160.782Z" fill="black"/>
<path d="M286.321 88.9862L272.858 99.6114L268.788 99.9036L267.294 100.01L242.195 101.825L216.168 99.9479L212.295 99.6689L207.359 99.3148L197.037 89.575C197.037 89.575 204.343 81.854 210.742 76.6432C213.264 74.5846 215.647 72.92 217.384 72.2647L217.68 72.1629C218.772 71.7427 219.747 71.0719 220.525 70.2061C225.578 65.0662 230.249 52.3823 230.249 52.3823C230.249 52.3823 252.539 41.0222 249.846 55.9241C247.154 70.8259 259.867 67.1425 259.867 67.1425L264.058 69.0285L265.714 69.7767L269.937 71.6848L279.464 75.9969C286.94 79.3925 286.321 88.9862 286.321 88.9862Z" fill="#BE6F72"/>
<path opacity="0.1" d="M241.15 64.5172C252.221 64.5172 261.195 55.6631 261.195 44.741C261.195 33.8189 252.221 24.9648 241.15 24.9648C230.079 24.9648 221.104 33.8189 221.104 44.741C221.104 55.6631 230.079 64.5172 241.15 64.5172Z" fill="black"/>
<path opacity="0.1" d="M286.352 103.073H196.292C196.292 102.932 196.292 102.857 196.292 102.857L197.037 90.0177C197.037 90.0177 204.343 82.2967 210.742 77.0859L267.285 74.8723L269.914 72.1364L279.441 76.4484C286.922 79.8396 286.321 89.4333 286.321 89.4333C286.321 89.4333 287.344 100.55 286.352 103.073Z" fill="black"/>
<path d="M286.352 102.631H196.292C196.292 102.489 196.292 102.414 196.292 102.414L197.037 89.575C197.037 89.575 204.343 81.854 210.742 76.6432L267.285 74.4296L269.914 71.6936L279.441 76.0057C286.922 79.3969 286.321 88.9906 286.321 88.9906C286.321 88.9906 287.344 100.107 286.352 102.631Z" fill="#E7C7CA"/>
<path opacity="0.1" d="M226.713 66.629C226.713 66.629 240.921 84.4882 259.844 66.2615C278.768 48.0348 261.94 106.916 261.94 106.916L221.104 111.698L226.713 66.629Z" fill="black"/>
<path d="M226.713 67.5144C226.713 67.5144 240.921 85.3736 259.844 67.1469C278.768 48.9203 261.94 107.802 261.94 107.802L221.104 112.583L226.713 67.5144Z" fill="#E7C7CA"/>
<path opacity="0.1" d="M265.692 70.6488L267.195 93.2673L268.806 100.793L270.036 106.549C270.036 106.549 273.177 150.821 272.279 153.034C271.382 155.248 272.728 157.019 272.917 158.196C273.105 159.374 272.728 162.331 272.876 163.659C273.024 164.987 272.876 165.576 269.439 165.103C266.001 164.629 261.209 163.805 261.209 163.805C261.209 163.805 249.092 164.691 244.906 163.217C240.719 161.742 232.789 161.738 232.789 161.738C232.789 161.738 220.821 162.035 216.935 161.592C213.049 161.149 210.949 166.316 208.409 164.837C205.869 163.358 211.397 149.05 213.192 144.915C214.987 140.78 210.801 130.305 210.801 130.305L216.186 100.833L217.384 94.1527V73.1502L217.68 73.0484C218.772 72.6281 219.747 71.9573 220.525 71.0915L221.871 92.2269L264.054 93.7055V69.9184" fill="black"/>
<path d="M265.692 69.7634L267.195 92.3818L268.806 99.908L270.036 105.663C270.036 105.663 273.177 149.935 272.279 152.149C271.382 154.362 272.728 156.133 272.917 157.311C273.105 158.488 272.728 161.446 272.876 162.774C273.024 164.102 272.876 164.691 269.439 164.217C266.001 163.743 261.209 162.92 261.209 162.92C261.209 162.92 249.092 163.805 244.906 162.331C240.719 160.857 232.789 160.852 232.789 160.852C232.789 160.852 220.821 161.149 216.935 160.706C213.049 160.264 210.949 165.43 208.409 163.951C205.869 162.473 211.397 148.164 213.192 144.029C214.987 139.894 210.801 129.42 210.801 129.42L216.186 99.9479L217.384 93.2673V72.2647L217.68 72.1629C218.772 71.7427 219.747 71.0719 220.525 70.2061L221.871 91.3414L264.054 92.8201V69.0329" fill="#E7C7CA"/>
<path opacity="0.1" d="M270.543 22.5609C270.287 21.6356 269.932 20.6749 269.196 20.0551C268.494 19.5573 267.682 19.2297 266.827 19.0988C264.78 18.5678 262.699 18.1744 260.598 17.9212C260.298 16.9381 259.844 16.0075 259.252 15.1631C254.854 9.03586 248.347 3.2584 240.692 1.95238C236.684 1.26617 232.04 1.88155 229.473 4.99828C228.064 6.71159 227.458 8.98273 226.036 10.6651C223.294 13.9323 218.344 14.3352 214.889 16.8631C213.044 18.1913 211.707 20.1171 210.401 21.9853C208.988 24.0086 207.534 26.1159 207.085 28.5331C206.187 33.3632 209.423 37.9674 210.02 42.8418C211.366 53.7459 199.519 63.4193 201.758 74.1773C203.064 80.4506 208.938 84.8689 215.014 87.1091C217.155 87.9015 219.601 88.6896 220.601 90.7172C221.05 91.6026 221.126 92.6253 221.548 93.5196C222.966 96.5035 227.629 96.6186 230.133 94.4449C232.637 92.2711 233.427 88.756 233.723 85.4754C234.925 71.1491 229.11 56.9954 229.787 42.6337C229.989 38.2906 231.228 33.3632 235.172 31.3975C240.481 28.7412 246.867 33.1684 252.709 32.3228C255.474 38.9597 256.061 46.2847 254.388 53.2677C253.459 57.0884 251.852 60.7939 251.736 64.7341C251.561 70.7329 254.841 76.2138 257.677 81.5175C258.286 82.5093 258.693 83.6085 258.875 84.7538C258.92 85.9158 258.701 87.073 258.233 88.1406C256.631 92.3951 253.867 96.3441 253.553 100.873C253.461 101.402 253.582 101.945 253.89 102.387C254.206 102.682 254.614 102.863 255.047 102.901C259.894 103.72 264.085 99.483 266.45 95.2285C269.087 90.5294 270.623 85.3074 270.947 79.9459C271.436 70.9322 268.16 62.0645 268.362 53.042C268.595 42.7842 273.294 32.4556 270.543 22.5609Z" fill="black"/>
<path d="M270.991 22.1182C270.736 21.1929 270.381 20.2322 269.645 19.6124C268.942 19.1145 268.131 18.7869 267.276 18.6561C265.229 18.1251 263.148 17.7317 261.047 17.4785C260.747 16.4954 260.293 15.5648 259.701 14.7203C255.303 8.59314 248.796 2.81568 241.141 1.50967C237.133 0.823453 232.489 1.43883 229.922 4.55556C228.513 6.26888 227.907 8.54002 226.484 10.2223C223.742 13.4896 218.793 13.8925 215.337 16.4204C213.493 17.7485 212.156 19.6744 210.85 21.5426C209.436 23.5658 207.982 25.6732 207.534 28.0904C206.636 32.9205 209.872 37.5247 210.468 42.399C211.815 53.3032 199.968 62.9765 202.207 73.7346C203.513 80.0079 209.387 84.4262 215.463 86.6663C217.604 87.4588 220.049 88.2468 221.05 90.2745C221.499 91.1599 221.575 92.1826 221.997 93.0769C223.415 96.0608 228.077 96.1759 230.581 94.0022C233.085 91.8284 233.875 88.3133 234.171 85.0327C235.374 70.7064 229.558 56.5527 230.236 42.191C230.438 37.8479 231.676 32.9205 235.621 30.9548C240.93 28.2985 247.315 32.7257 253.158 31.8801C255.923 38.517 256.51 45.8419 254.836 52.825C253.908 56.6457 252.301 60.3512 252.184 64.2914C252.009 70.2902 255.29 75.7711 258.126 81.0748C258.734 82.0666 259.141 83.1658 259.324 84.3111C259.369 85.4731 259.149 86.6302 258.682 87.6979C257.08 91.9524 254.316 95.9014 254.002 100.43C253.91 100.959 254.03 101.502 254.338 101.945C254.654 102.24 255.062 102.421 255.496 102.458C260.343 103.277 264.534 99.0403 266.899 94.7858C269.536 90.0867 271.072 84.8647 271.395 79.5032C271.884 70.4895 268.609 61.6218 268.811 52.5992C269.044 42.3415 273.742 32.0129 270.991 22.1182Z" fill="#3E373A"/>
<path d="M261.078 218.14L278.88 218.702L276.327 205.678L262.69 206.957L261.078 218.14Z" fill="#C3C7D9"/>
<path d="M316.239 187.269C315.041 188.744 310.405 191.4 309.957 192.285C309.508 193.171 303.975 195.827 301.13 196.27C298.285 196.713 289.314 198.634 287.667 199.665C286.487 200.409 277.014 202.765 270.79 204.071C269.104 204.464 267.397 204.767 265.678 204.978C262.986 205.124 233.521 195.238 233.521 195.238L239.202 189.483L239.516 189.377C241.123 188.841 248.545 186.366 252.665 185.189C257.305 183.86 262.69 178.402 262.69 178.402C262.69 178.402 270.615 175.745 271.665 175.449C272.715 175.152 268.972 165.12 268.972 165.12C268.972 165.12 286.173 162.765 292.904 160.768C299.635 158.772 315.193 159.511 318.034 167.334C320.875 175.157 317.455 185.795 316.239 187.269Z" fill="#4B4B5B"/>
<path d="M237.856 212.208C237.856 212.208 234.418 215.749 230.976 215.457C227.534 215.165 215.499 216.343 215.499 216.343C213.318 217.201 211.275 218.369 209.436 219.809C206.623 221.996 205.128 220.252 204.85 219.88L204.801 219.809C203.302 224.462 199.865 220.916 199.865 220.916C199.865 220.916 201.359 206.749 200.901 204.978C200.443 203.207 203.858 200.166 203.858 200.166L207.897 199.152L218.129 196.566L232.789 201.582L237.856 212.208Z" fill="#E7C7CA"/>
<path opacity="0.1" d="M207.879 199.152L204.85 219.88L204.801 219.809C203.302 224.462 199.865 220.916 199.865 220.916C199.865 220.916 201.359 206.749 200.901 204.978C200.443 203.207 203.858 200.166 203.858 200.166L207.879 199.152Z" fill="black"/>
<path opacity="0.1" d="M229.051 140.191C229.051 140.191 236.976 142.847 243.86 140.191H229.051Z" fill="black"/>
<path opacity="0.1" d="M256.106 145.211C256.106 145.211 259.396 146.832 261.94 145.211H256.106Z" fill="black"/>
<path opacity="0.1" d="M256.106 149.054C256.106 149.054 261.64 149.785 262.69 148.31L256.106 149.054Z" fill="black"/>
<path opacity="0.1" d="M254.311 157.311C254.311 157.311 264.704 155.983 267.285 154.212L254.311 157.311Z" fill="black"/>
<path opacity="0.1" d="M222.598 154.212C222.598 154.212 228.432 157.457 232.771 157.311L222.598 154.212Z" fill="black"/>
<path opacity="0.1" d="M270.785 204.071C269.099 204.464 267.393 204.767 265.674 204.978C262.981 205.124 233.516 195.238 233.516 195.238L239.197 189.483L239.512 189.377C240.409 190.001 241.145 190.537 241.67 190.944C244.143 192.865 246.53 190.355 247.428 190.355C248.325 190.355 256.102 196.699 256.102 196.699C256.102 196.699 263.282 198.324 264.48 199.798C265.678 201.273 269.865 200.98 270.61 202.012C270.834 202.331 270.861 203.114 270.785 204.071Z" fill="black"/>
<path d="M215.499 165.722C215.499 165.722 208.238 166.134 204.051 164.394C199.865 162.654 185.953 158.639 181.915 161.459C177.876 164.279 168.151 166.772 172.639 177.99C177.126 189.209 179.222 189.501 179.222 189.501C180.61 190.528 181.823 191.769 182.812 193.175C184.158 195.243 196.723 199.962 199.865 199.962C203.006 199.962 208.539 199.962 216.316 205.275C224.093 210.587 231.125 211.181 231.125 211.181C231.125 211.181 240.997 215.165 244.071 216.05C247.145 216.936 261.191 220.77 264.485 219.592C267.778 218.415 269.87 211.03 269.87 211.03C269.87 211.03 271.364 204.389 270.615 203.358C269.865 202.326 265.678 202.618 264.485 201.144C263.291 199.67 256.106 198.045 256.106 198.045C256.106 198.045 248.348 191.697 247.45 191.697C246.553 191.697 244.165 194.202 241.693 192.285C236.767 188.686 231.592 185.432 226.206 182.546C220.525 179.593 215.499 165.722 215.499 165.722Z" fill="#4B4B5B"/>
<path opacity="0.1" d="M200.901 170.003C202.194 169.743 203.53 169.78 204.806 170.113C206.082 170.445 207.263 171.064 208.256 171.92C211.846 174.873 223.927 180.801 223.927 180.801" fill="black"/>
<path opacity="0.1" d="M290.66 169.818C290.66 169.818 274.653 172.208 271.665 175.453L290.66 169.818Z" fill="black"/>
<path d="M309.059 218.702H308.354C305.823 218.614 297.248 218.348 295.596 218.702C293.653 219.145 267.922 218.702 267.922 218.702L272.953 217.671C272.953 217.671 271.086 211.216 272.27 210.68C272.27 210.68 265.539 206.306 270.615 203.353C275.69 200.4 281.16 201.644 281.16 201.644L293.9 197.385L296.346 196.566C296.346 196.566 310.706 197.306 314.592 207.046C318.478 216.785 309.059 218.702 309.059 218.702Z" fill="#E7C7CA"/>
<path opacity="0.1" d="M309.059 218.702H308.354C312.532 215.302 321.983 204.952 293.9 197.408L296.346 196.589C296.346 196.589 310.706 197.328 314.592 207.068C318.478 216.808 309.059 218.702 309.059 218.702Z" fill="black"/>
<path d="M282.659 207.227C283.093 207.227 283.444 206.88 283.444 206.452C283.444 206.024 283.093 205.678 282.659 205.678C282.225 205.678 281.874 206.024 281.874 206.452C281.874 206.88 282.225 207.227 282.659 207.227Z" fill="#4B4B5B"/>
<path d="M278.095 208.507C278.529 208.507 278.881 208.16 278.881 207.732C278.881 207.304 278.529 206.957 278.095 206.957C277.662 206.957 277.31 207.304 277.31 207.732C277.31 208.16 277.662 208.507 278.095 208.507Z" fill="#4B4B5B"/>
<g opacity="0.1">
<path opacity="0.1" d="M255.86 44.0105C256.034 39.141 255.156 34.2907 253.284 29.7816C247.45 30.6405 241.06 26.2 235.747 28.8563C231.815 30.822 230.581 35.7494 230.362 40.0925C230.308 41.2391 230.299 42.3858 230.321 43.5324C230.321 43.1251 230.321 42.7134 230.362 42.3061C230.568 37.963 231.802 33.0356 235.747 31.0699C241.06 28.4136 247.441 32.8408 253.284 31.9952C254.869 35.8145 255.742 39.885 255.86 44.0105Z" fill="black"/>
<path opacity="0.1" d="M210.652 43.2004C210.729 42.2357 210.71 41.2659 210.594 40.305C210.118 36.4091 207.96 32.6858 207.57 28.8873C207.067 33.4694 210.024 37.8701 210.594 42.5186C210.652 42.7576 210.652 42.9702 210.652 43.2004Z" fill="black"/>
<path opacity="0.1" d="M234.297 82.9298C234.019 86.2148 233.234 89.7255 230.707 91.9037C228.181 94.0819 223.527 93.9623 222.123 90.9784C221.674 90.093 221.607 89.0614 221.171 88.176C220.175 86.1484 217.725 85.3603 215.584 84.5679C209.504 82.3233 203.639 77.9271 202.333 71.6361C202.216 71.0662 202.137 70.4895 202.095 69.9095C201.984 71.2274 202.065 72.554 202.333 73.8497C203.639 80.123 209.513 84.5369 215.584 86.7815C217.725 87.5739 220.175 88.3619 221.171 90.3896C221.62 91.275 221.696 92.2977 222.123 93.192C223.536 96.1759 228.199 96.291 230.707 94.1173C233.216 91.9435 233.997 88.4284 234.297 85.1434C234.434 83.4144 234.48 81.6796 234.436 79.9459C234.436 80.9509 234.378 81.9426 234.297 82.9298Z" fill="black"/>
<path opacity="0.1" d="M268.959 50.5008C268.959 51.1427 268.959 51.7802 268.959 52.4177C269.21 44.1832 272.27 35.9044 271.97 27.8425C271.736 35.2979 269.129 42.9215 268.959 50.5008Z" fill="black"/>
<path opacity="0.1" d="M259.328 83.8108C259.439 83.2855 259.474 82.7475 259.432 82.2126C259.251 81.0669 258.844 79.9673 258.234 78.9763C255.64 74.1065 252.682 69.1215 252.332 63.7159C252.332 63.9461 252.301 64.1586 252.297 64.4065C252.117 70.4009 255.397 75.8862 258.234 81.1899C258.716 82.0114 259.084 82.8929 259.328 83.8108Z" fill="black"/>
<path opacity="0.1" d="M271.539 77.4047C271.204 82.7683 269.657 87.99 267.011 92.6873C264.642 96.9418 260.455 101.179 255.604 100.36C255.169 100.323 254.761 100.14 254.446 99.8416C254.355 99.7402 254.283 99.6232 254.235 99.4963C254.181 99.8416 254.136 100.191 254.11 100.546C254.017 101.073 254.138 101.615 254.446 102.055C254.761 102.353 255.169 102.536 255.604 102.573C260.455 103.392 264.642 99.1554 267.011 94.9009C269.657 90.2036 271.204 84.9819 271.539 79.6183C271.593 78.5823 271.597 77.5508 271.566 76.5193C271.557 76.8159 271.557 77.1081 271.539 77.4047Z" fill="black"/>
</g>
<path opacity="0.1" d="M272.27 210.68C272.27 210.68 283.628 215.382 291.118 204.978" stroke="black" stroke-miterlimit="10"/>
<path opacity="0.1" d="M274.505 218.897C274.505 218.897 283.781 212.947 295.596 218.702" stroke="black" stroke-miterlimit="10"/>
<path opacity="0.1" d="M212.416 217.547C212.416 217.547 216.311 208.878 226.713 215.488" stroke="black" stroke-miterlimit="10"/>
<path opacity="0.1" d="M199.788 89.3536L207.731 82.2702C207.731 82.2702 238.529 80.2779 239.803 90.6065C239.803 90.6065 250.721 78.361 273.684 81.0881L283.399 88.7205L256.546 100.346L230.451 109.276L211.231 100.789L199.788 89.3536Z" fill="black"/>
<path d="M199.788 89.7964L207.731 82.7129C207.731 82.7129 238.529 80.7207 239.803 91.0492C239.803 91.0492 250.721 78.8037 273.684 81.5308L283.399 89.1633L256.546 100.789L230.451 109.719L211.231 101.232L199.788 89.7964Z" fill="#D5D6DB"/>
<path opacity="0.1" d="M196.275 90.6818L199.788 132.151L237.035 133.997L235.419 92.705L235.388 92.0099L196.275 90.6818Z" fill="black"/>
<path d="M196.275 89.7964L199.788 131.266L237.035 133.112L235.419 91.8196L235.388 91.1245L196.275 89.7964Z" fill="#6C63FF"/>
<path opacity="0.1" d="M285.105 89.7964L246.683 95.4808V137.136L284.23 131.784L285.105 89.7964Z" fill="black"/>
<path d="M285.105 88.9109L246.683 94.5954V136.251L284.23 130.898L285.105 88.9109Z" fill="#6C63FF"/>
<path opacity="0.3" d="M276.044 99.0757L255.29 101.351L255.743 108.329L276.031 106.141L276.044 99.0757Z" fill="white"/>
<path d="M201.808 153.472L203.921 159.082C203.921 159.082 207.062 161.738 210.5 160.41C213.937 159.082 216.935 158.422 218.429 157.129C219.924 155.837 222.019 149.342 222.019 149.342C222.019 149.342 224.115 142.258 226.206 140.487C228.297 138.717 233.835 114.318 226.206 116.705C218.577 119.091 212.744 141.227 212.744 141.227C212.744 141.227 211.397 142.847 209.454 142.998C207.511 143.148 203.621 142.701 202.871 144.326C202.122 145.951 199.564 150.227 201.808 153.472Z" fill="#BE6F72"/>
<path opacity="0.1" d="M246.683 95.4764C244.715 95.9137 242.672 95.8909 240.715 95.4096C238.759 94.9284 236.943 94.0022 235.414 92.705L237.034 133.993C237.034 133.993 240.849 138.066 246.683 137.136V95.4764Z" fill="black"/>
<path d="M246.683 94.591C244.715 95.0283 242.672 95.0054 240.715 94.5242C238.759 94.043 236.943 93.1167 235.414 91.8196L237.034 133.107C237.034 133.107 240.849 137.18 246.683 136.251V94.591Z" fill="#6C63FF"/>
<path opacity="0.1" d="M246.683 94.591C244.715 95.0283 242.672 95.0054 240.715 94.5242C238.759 94.043 236.943 93.1167 235.414 91.8196L237.034 133.107C237.034 133.107 240.849 137.18 246.683 136.251V94.591Z" fill="black"/>
<path opacity="0.1" d="M247.58 89.938C247.58 89.938 263.21 85.2231 267.285 85.8872L247.58 89.938Z" fill="black"/>
<path opacity="0.1" d="M230.097 87.8794C230.097 87.8794 214.947 84.3377 212.416 85.3426L230.097 87.8794Z" fill="black"/>
<path opacity="0.1" d="M257.435 90.5268C257.435 90.5268 267.886 86.746 271.665 88.5435L257.435 90.5268Z" fill="black"/>
<path opacity="0.1" d="M252.171 185.37C253.79 184.17 255.514 183.114 257.323 182.214C260.015 180.934 264.951 177.614 264.951 177.614" fill="black"/>
<path opacity="0.1" d="M212.416 140.191C212.416 140.191 205.86 145.481 203.89 145.946C201.92 146.411 200.704 150.537 200.704 150.537" fill="black"/>
<path d="M281.25 152.684L279.159 158.307C279.159 158.307 276.017 160.963 272.576 159.635C269.134 158.307 266.145 157.647 264.646 156.354C263.147 155.062 261.056 148.567 261.056 148.567C261.056 148.567 258.965 141.484 256.869 139.713C254.774 137.942 249.241 113.544 256.869 115.93C264.498 118.316 270.332 140.452 270.332 140.452C270.332 140.452 271.678 142.072 273.621 142.223C275.564 142.373 279.455 141.926 280.204 143.551C280.954 145.176 283.494 149.453 281.25 152.684Z" fill="#BE6F72"/>
<path opacity="0.1" d="M277.584 142.342C277.584 142.342 281.869 145.061 281.851 148.31L277.584 142.342Z" fill="black"/>
<path d="M241.221 63.5476C252.292 63.5476 261.267 54.6936 261.267 43.7715C261.267 32.8494 252.292 23.9953 241.221 23.9953C230.15 23.9953 221.176 32.8494 221.176 43.7715C221.176 54.6936 230.15 63.5476 241.221 63.5476Z" fill="#BE6F72"/>
<path d="M228.634 38.4633C231.066 38.087 233.198 36.6924 235.522 35.8911C240.723 34.0892 246.476 35.3244 251.74 36.9492C253.759 37.5734 255.81 38.2773 257.928 38.2773C260.046 38.2773 262.295 37.4229 263.376 35.621C264.372 33.9653 264.179 31.8137 263.34 30.0738C262.501 28.3339 261.096 26.9349 259.678 25.6156C255.011 21.2681 249.223 17.204 242.819 17.6467C240.243 17.8282 237.779 18.7358 235.41 19.7408C232.427 21.0091 229.522 22.452 226.713 24.0617C224.555 25.2969 220.556 26.9482 219.313 29.2061C216.486 34.2929 224.236 39.1451 228.634 38.4633Z" fill="#3E373A"/>
<path opacity="0.1" d="M263.376 33.7616C262.295 35.5635 260.046 36.4179 257.928 36.4179C255.81 36.4179 253.759 35.7406 251.736 35.1163C246.472 33.4916 240.723 32.252 235.518 34.0582C233.198 34.8596 231.062 36.2718 228.629 36.626C225.084 37.175 219.376 34.1291 218.757 30.2553C218.061 34.7312 224.68 38.5651 228.629 37.9542C231.062 37.5778 233.198 36.1833 235.518 35.3864C240.723 33.5801 246.472 34.8197 251.736 36.4445C253.759 37.0687 255.806 37.7726 257.928 37.7461C260.051 37.7195 262.295 36.8961 263.376 35.0898C263.937 34.1071 264.157 32.971 264.004 31.8535C263.934 32.5263 263.72 33.1767 263.376 33.7616Z" fill="black"/>
<path d="M426.053 273.692C426.053 273.692 428.714 277.123 424.823 282.308C420.933 287.492 417.728 291.866 419.021 295.098C419.021 295.098 424.891 285.473 429.665 285.336C434.44 285.199 431.299 279.479 426.053 273.692Z" fill="#6C63FF"/>
<path opacity="0.1" d="M426.053 273.692C426.284 274.024 426.467 274.386 426.596 274.768C431.254 280.169 433.74 285.212 429.257 285.336C425.083 285.455 420.08 292.818 418.882 294.673C418.92 294.823 418.966 294.97 419.021 295.115C419.021 295.115 424.891 285.491 429.665 285.353C434.44 285.216 431.299 279.479 426.053 273.692Z" fill="black"/>
<path d="M430.989 278.066C430.989 279.275 430.85 280.253 430.684 280.253C430.518 280.253 430.374 279.275 430.374 278.066C430.374 276.858 430.545 277.429 430.715 277.429C430.886 277.429 430.989 276.858 430.989 278.066Z" fill="#FFD037"/>
<path d="M432.69 279.51C431.617 280.085 430.679 280.435 430.599 280.289C430.518 280.143 431.321 279.554 432.394 278.961C433.466 278.367 433.044 278.801 433.125 278.961C433.206 279.12 433.767 278.93 432.69 279.51Z" fill="#FFD037"/>
<path d="M411.989 273.692C411.989 273.692 409.328 277.123 413.218 282.308C417.109 287.492 420.313 291.866 419.016 295.098C419.016 295.098 413.151 285.473 408.372 285.336C403.593 285.199 406.756 279.479 411.989 273.692Z" fill="#6C63FF"/>
<path opacity="0.1" d="M411.989 273.692C411.757 274.024 411.574 274.386 411.446 274.768C406.788 280.169 404.302 285.212 408.785 285.336C412.954 285.455 417.962 292.818 419.16 294.673C419.122 294.823 419.074 294.971 419.016 295.115C419.016 295.115 413.151 285.491 408.372 285.353C403.593 285.216 406.756 279.479 411.989 273.692Z" fill="black"/>
<path d="M407.044 278.066C407.044 279.275 407.178 280.253 407.349 280.253C407.519 280.253 407.658 279.275 407.658 278.066C407.658 276.858 407.483 277.429 407.317 277.429C407.151 277.429 407.044 276.858 407.044 278.066Z" fill="#FFD037"/>
<path d="M405.347 279.51C406.42 280.085 407.358 280.435 407.439 280.289C407.519 280.143 406.716 279.554 405.644 278.961C404.571 278.367 404.993 278.801 404.912 278.961C404.831 279.12 404.27 278.93 405.347 279.51Z" fill="#FFD037"/>
<path opacity="0.1" d="M419.021 321.36C434.387 321.36 446.843 319.475 446.843 317.149C446.843 314.824 434.387 312.939 419.021 312.939C403.655 312.939 391.198 314.824 391.198 317.149C391.198 319.475 403.655 321.36 419.021 321.36Z" fill="#6C63FF"/>
<path d="M433.34 290.471L433.206 291.543L433.017 293.057L432.941 293.69L432.753 295.204L432.672 295.837L432.488 297.347L430.356 314.568C430.168 316.105 427.623 317.304 424.549 317.304H413.488C410.414 317.304 407.874 316.105 407.681 314.568L405.549 297.347L405.361 295.837L405.284 295.204L405.096 293.69L405.015 293.057L404.831 291.543L404.697 290.471C404.593 289.586 405.967 288.869 407.708 288.869H430.334C432.07 288.869 433.448 289.599 433.34 290.471Z" fill="#65617D"/>
<path d="M433.206 291.543L433.022 293.057H405.02L404.831 291.543H433.206Z" fill="#9D9CB5"/>
<path d="M432.941 293.69L432.757 295.204H405.285L405.096 293.69H432.941Z" fill="#9D9CB5"/>
<path d="M432.676 295.837L432.488 297.351H405.549L405.365 295.837H432.676Z" fill="#9D9CB5"/>
</g>
<defs>
<linearGradient id="paint0_linear_2:128" x1="245.305" y1="222.209" x2="245.305" y2="0.000545706" gradientUnits="userSpaceOnUse">
<stop stop-color="#808080" stop-opacity="0.25"/>
<stop offset="0.54" stop-color="#808080" stop-opacity="0.12"/>
<stop offset="1" stop-color="#808080" stop-opacity="0.1"/>
</linearGradient>
<clipPath id="clip0_2:128">
<rect width="459" height="360" fill="white"/>
</clipPath>
</defs>
</svg>
